<svg width="30" height="30" viewBox="0 0 30 30" fill="none" xmlns="http://www.w3.org/2000/svg">
<path opacity="0.4" d="M15 6.62317V26.6607C15.2125 26.6607 15.4375 26.6231 15.6125 26.5231L15.6625 26.4982C18.0625 25.1857 22.25 23.8107 24.9625 23.4482L25.325 23.3981C26.525 23.2481 27.5 22.1232 27.5 20.9232V5.82315C27.5 4.33565 26.2875 3.21066 24.8 3.33566C22.175 3.54816 18.2 4.87319 15.975 6.26069L15.6625 6.44815C15.475 6.56065 15.2375 6.62317 15 6.62317Z" fill="#F9B233"/>
<path d="M2.5 5.83301V20.9205C2.5 22.1205 3.47499 23.2455 4.67499 23.3955L5.08751 23.4455C7.81251 23.808 12.0125 25.1955 14.4125 26.5205C14.575 26.6205 14.775 26.6581 15 26.6581V6.62051C14.7625 6.62051 14.525 6.558 14.3375 6.4455L14.125 6.30801C11.9 4.90801 7.91248 3.57052 5.28748 3.34552H5.21248C3.72498 3.22052 2.5 4.33301 2.5 5.83301Z" fill="#F9B233"/>
<path d="M23.75 3.47266V8.83513C23.75 9.33513 23.2 9.63511 22.775 9.36011L21.25 8.34761L19.725 9.36011C19.3125 9.63511 18.75 9.33513 18.75 8.83513V4.8976C20.3875 4.2476 22.2125 3.72266 23.75 3.47266Z" fill="#F9B233"/>
</svg>
