<svg width="30" height="30" viewBox="0 0 30 30" fill="none" xmlns="http://www.w3.org/2000/svg">
<path d="M20.9378 4.45V2.5C20.9378 1.9875 20.5128 1.5625 20.0003 1.5625C19.4878 1.5625 19.0628 1.9875 19.0628 2.5V4.375H10.9378V2.5C10.9378 1.9875 10.5128 1.5625 10.0003 1.5625C9.48778 1.5625 9.06278 1.9875 9.06278 2.5V4.45C5.68779 4.7625 4.05029 6.775 3.80029 9.7625C3.77529 10.125 4.07529 10.425 4.42529 10.425H25.5753C25.9378 10.425 26.2378 10.1125 26.2003 9.7625C25.9503 6.775 24.3128 4.7625 20.9378 4.45Z" fill="#767676"/>
<path opacity="0.4" d="M25 12.3008C25.6875 12.3008 26.25 12.8633 26.25 13.5508V21.2508C26.25 25.0008 24.375 27.5008 20 27.5008H10C5.625 27.5008 3.75 25.0008 3.75 21.2508V13.5508C3.75 12.8633 4.3125 12.3008 5 12.3008H25Z" fill="#767676"/>
<path d="M10.625 18.7486C10.3 18.7486 9.975 18.6111 9.7375 18.3861C9.5125 18.1486 9.375 17.8236 9.375 17.4986C9.375 17.1736 9.5125 16.8486 9.7375 16.6111C10.0875 16.2611 10.6375 16.1486 11.1 16.3486C11.2625 16.4111 11.4 16.4986 11.5125 16.6111C11.7375 16.8486 11.875 17.1736 11.875 17.4986C11.875 17.8236 11.7375 18.1486 11.5125 18.3861C11.275 18.6111 10.95 18.7486 10.625 18.7486Z" fill="#767676"/>
<path d="M15 18.7486C14.675 18.7486 14.35 18.6111 14.1125 18.3861C13.8875 18.1486 13.75 17.8236 13.75 17.4986C13.75 17.1736 13.8875 16.8486 14.1125 16.6111C14.225 16.4986 14.3625 16.4111 14.525 16.3486C14.9875 16.1486 15.5375 16.2611 15.8875 16.6111C16.1125 16.8486 16.25 17.1736 16.25 17.4986C16.25 17.8236 16.1125 18.1486 15.8875 18.3861C15.825 18.4361 15.7625 18.4861 15.7 18.5361C15.625 18.5861 15.55 18.6236 15.475 18.6486C15.4 18.6861 15.325 18.7111 15.25 18.7236C15.1625 18.7361 15.0875 18.7486 15 18.7486Z" fill="#767676"/>
<path d="M19.375 18.75C19.05 18.75 18.725 18.6125 18.4875 18.3875C18.2625 18.15 18.125 17.825 18.125 17.5C18.125 17.175 18.2625 16.85 18.4875 16.6125C18.6125 16.5 18.7375 16.4125 18.9 16.35C19.125 16.25 19.375 16.225 19.625 16.275C19.7 16.2875 19.775 16.3125 19.85 16.35C19.925 16.375 20 16.4125 20.075 16.4625C20.1375 16.5125 20.2 16.5625 20.2625 16.6125C20.4875 16.85 20.625 17.175 20.625 17.5C20.625 17.825 20.4875 18.15 20.2625 18.3875C20.2 18.4375 20.1375 18.4875 20.075 18.5375C20 18.5875 19.925 18.625 19.85 18.65C19.775 18.6875 19.7 18.7125 19.625 18.725C19.5375 18.7375 19.45 18.75 19.375 18.75Z" fill="#767676"/>
<path d="M10.625 23.125C10.4625 23.125 10.3 23.0875 10.15 23.025C9.9875 22.9625 9.8625 22.875 9.7375 22.7625C9.5125 22.525 9.375 22.2 9.375 21.875C9.375 21.55 9.5125 21.225 9.7375 20.9875C9.8625 20.875 9.9875 20.7875 10.15 20.725C10.375 20.625 10.625 20.6 10.875 20.65C10.95 20.6625 11.025 20.6875 11.1 20.725C11.175 20.75 11.25 20.7875 11.325 20.8375C11.3875 20.8875 11.45 20.9375 11.5125 20.9875C11.7375 21.225 11.875 21.55 11.875 21.875C11.875 22.2 11.7375 22.525 11.5125 22.7625C11.45 22.8125 11.3875 22.875 11.325 22.9125C11.25 22.9625 11.175 23 11.1 23.025C11.025 23.0625 10.95 23.0875 10.875 23.1C10.7875 23.1125 10.7125 23.125 10.625 23.125Z" fill="#767676"/>
<path d="M15 23.1289C14.675 23.1289 14.35 22.9914 14.1125 22.7664C13.8875 22.5289 13.75 22.2039 13.75 21.8789C13.75 21.5539 13.8875 21.2289 14.1125 20.9914C14.575 20.5289 15.425 20.5289 15.8875 20.9914C16.1125 21.2289 16.25 21.5539 16.25 21.8789C16.25 22.2039 16.1125 22.5289 15.8875 22.7664C15.65 22.9914 15.325 23.1289 15 23.1289Z" fill="#767676"/>
<path d="M19.375 23.1289C19.05 23.1289 18.725 22.9914 18.4875 22.7664C18.2625 22.5289 18.125 22.2039 18.125 21.8789C18.125 21.5539 18.2625 21.2289 18.4875 20.9914C18.95 20.5289 19.8 20.5289 20.2625 20.9914C20.4875 21.2289 20.625 21.5539 20.625 21.8789C20.625 22.2039 20.4875 22.5289 20.2625 22.7664C20.025 22.9914 19.7 23.1289 19.375 23.1289Z" fill="#767676"/>
</svg>
