<svg width="30" height="30" viewBox="0 0 30 30" fill="none" xmlns="http://www.w3.org/2000/svg">
<path opacity="0.4" d="M20.2998 4.5625H9.6998C6.6123 4.5625 4.1123 7.075 4.1123 10.15V21.9125C4.1123 24.9875 6.6248 27.5 9.6998 27.5H20.2873C23.3748 27.5 25.8748 24.9875 25.8748 21.9125V10.15C25.8873 7.0625 23.3748 4.5625 20.2998 4.5625Z" fill="#767676"/>
<path d="M17.9377 2.5H12.0627C10.7627 2.5 9.7002 3.55 9.7002 4.85V6.025C9.7002 7.325 10.7502 8.375 12.0502 8.375H17.9377C19.2377 8.375 20.2877 7.325 20.2877 6.025V4.85C20.3002 3.55 19.2377 2.5 17.9377 2.5Z" fill="#767676"/>
<path d="M18.75 16.1875H10C9.4875 16.1875 9.0625 15.7625 9.0625 15.25C9.0625 14.7375 9.4875 14.3125 10 14.3125H18.75C19.2625 14.3125 19.6875 14.7375 19.6875 15.25C19.6875 15.7625 19.2625 16.1875 18.75 16.1875Z" fill="#767676"/>
<path d="M15.475 21.1875H10C9.4875 21.1875 9.0625 20.7625 9.0625 20.25C9.0625 19.7375 9.4875 19.3125 10 19.3125H15.475C15.9875 19.3125 16.4125 19.7375 16.4125 20.25C16.4125 20.7625 15.9875 21.1875 15.475 21.1875Z" fill="#767676"/>
</svg>
