<svg width="29" height="29" viewBox="0 0 29 29" fill="none" xmlns="http://www.w3.org/2000/svg">
<path opacity="0.4" d="M14.5003 26.4616C21.1738 26.4616 26.5837 21.0517 26.5837 14.3783C26.5837 7.70481 21.1738 2.29492 14.5003 2.29492C7.82689 2.29492 2.41699 7.70481 2.41699 14.3783C2.41699 21.0517 7.82689 26.4616 14.5003 26.4616Z" fill="#767676"/>
<path d="M17.2305 14.5L15.406 13.8596V9.76333H15.841C16.8197 9.76333 17.6172 10.6213 17.6172 11.6725C17.6172 12.1679 18.028 12.5788 18.5235 12.5788C19.0189 12.5788 19.4297 12.1679 19.4297 11.6725C19.4297 9.61833 17.8226 7.95083 15.841 7.95083H15.406V7.25C15.406 6.75458 14.9951 6.34375 14.4997 6.34375C14.0043 6.34375 13.5935 6.75458 13.5935 7.25V7.95083H12.808C11.0197 7.95083 9.55762 9.46125 9.55762 11.31C9.55762 13.4729 10.8143 14.1617 11.7689 14.5L13.5935 15.1404V19.2246H13.1585C12.1797 19.2246 11.3822 18.3667 11.3822 17.3154C11.3822 16.82 10.9714 16.4092 10.476 16.4092C9.98053 16.4092 9.5697 16.82 9.5697 17.3154C9.5697 19.3696 11.1768 21.0371 13.1585 21.0371H13.5935V21.75C13.5935 22.2454 14.0043 22.6562 14.4997 22.6562C14.9951 22.6562 15.406 22.2454 15.406 21.75V21.0492H16.1914C17.9797 21.0492 19.4418 19.5388 19.4418 17.69C19.4297 15.515 18.173 14.8263 17.2305 14.5ZM12.373 12.7963C11.7568 12.5788 11.3822 12.3733 11.3822 11.3221C11.3822 10.4642 12.0226 9.77542 12.8201 9.77542H13.6055V13.2312L12.373 12.7963ZM16.1914 19.2367H15.406V15.7808L16.6264 16.2038C17.2426 16.4213 17.6172 16.6267 17.6172 17.6779C17.6172 18.5358 16.9768 19.2367 16.1914 19.2367Z" fill="#767676"/>
</svg>
