<svg width="30" height="30" viewBox="0 0 30 30" fill="none" xmlns="http://www.w3.org/2000/svg">
<path opacity="0.4" d="M15 27.5C21.9036 27.5 27.5 21.9036 27.5 15C27.5 8.09644 21.9036 2.5 15 2.5C8.09644 2.5 2.5 8.09644 2.5 15C2.5 21.9036 8.09644 27.5 15 27.5Z" fill="#767676"/>
<path d="M21.2498 19.9629C19.6123 19.9629 18.0498 19.2129 16.7998 17.8254C18.0373 16.2379 18.8373 14.2754 19.0123 12.1254H21.2373C21.7498 12.1254 22.1748 11.7004 22.1748 11.1879C22.1748 10.6754 21.7498 10.2504 21.2373 10.2504H18.1998C18.1748 10.2504 18.1498 10.2379 18.1248 10.2379C18.0998 10.2379 18.0748 10.2504 18.0498 10.2504H15.9373V9.08789C15.9373 8.57539 15.5123 8.15039 14.9998 8.15039C14.4873 8.15039 14.0623 8.57539 14.0623 9.08789V10.2504H8.76233C8.24983 10.2504 7.82483 10.6754 7.82483 11.1879C7.82483 11.7004 8.24983 12.1254 8.76233 12.1254H14.9998H17.1248C16.6623 16.5254 13.0873 19.9629 8.7373 19.9629C8.2248 19.9629 7.7998 20.3879 7.7998 20.9004C7.7998 21.4129 8.2248 21.8379 8.7373 21.8379C11.3248 21.8379 13.6873 20.8379 15.4998 19.2004C17.0873 20.9004 19.0998 21.8379 21.2373 21.8379C21.7498 21.8379 22.1748 21.4129 22.1748 20.9004C22.1748 20.3879 21.7623 19.9629 21.2498 19.9629Z" fill="#767676"/>
</svg>
