<svg width="29" height="29" viewBox="0 0 29 29" fill="none" xmlns="http://www.w3.org/2000/svg">
<path opacity="0.4" d="M10.875 8.69935V20.2873C10.875 24.166 13.2917 26.5827 17.1583 26.5827H20.2879C24.1546 26.5827 26.5712 24.166 26.5712 20.2994V8.69935C26.5833 4.83268 24.1667 2.41602 20.3 2.41602H17.1583C13.2917 2.41602 10.875 4.83268 10.875 8.69935Z" fill="black"/>
<path d="M6.73065 9.81094L2.68273 13.8589C2.33232 14.2093 2.33232 14.7893 2.68273 15.1397L6.73065 19.1876C7.08107 19.538 7.66107 19.538 8.01148 19.1876C8.3619 18.8372 8.3619 18.2572 8.01148 17.9068L5.51023 15.4055H18.4273C18.9227 15.4055 19.3336 14.9947 19.3336 14.4993C19.3336 14.0039 18.9227 13.593 18.4273 13.593H5.51023L8.01148 11.0918C8.19273 10.9105 8.27732 10.6809 8.27732 10.4514C8.27732 10.2218 8.19273 9.9801 8.01148 9.81094C7.66107 9.44844 7.09315 9.44844 6.73065 9.81094Z" fill="black"/>
</svg>
