<svg xmlns="http://www.w3.org/2000/svg" viewBox="0 0 338.77 301.14" style="width: 150px;"><defs><radialGradient id="silver_svg__radial-gradient" cx="69.29" cy="-3.55" r="75.92" fx="39.57" fy="-56.51" gradientTransform="matrix(-.41058 1.15945 -1.15701 -.41746 118.24 113.96)" gradientUnits="userSpaceOnUse"><stop offset="0.59" stop-color="silver" stop-opacity="0.78"></stop><stop offset="0.64" stop-color="#c3c3c3" stop-opacity="0.74"></stop><stop offset="0.72" stop-color="#cbcbcb" stop-opacity="0.64"></stop><stop offset="0.81" stop-color="#d9d9d9" stop-opacity="0.47"></stop><stop offset="0.91" stop-color="#ebebeb" stop-opacity="0.24"></stop><stop offset="1" stop-color="#fff" stop-opacity="0"></stop></radialGradient><radialGradient id="silver_svg__radial-gradient-2" cx="332.65" cy="184.82" r="93.5" fx="403.49" fy="123.8" gradientTransform="matrix(-.27669 -1.19848 1.20012 -.26958 92.36 617.68)" gradientUnits="userSpaceOnUse"><stop offset="0.3" stop-color="silver" stop-opacity="0.61"></stop><stop offset="0.44" stop-color="#c1c1c1" stop-opacity="0.59"></stop><stop offset="0.57" stop-color="#c7c7c7" stop-opacity="0.53"></stop><stop offset="0.69" stop-color="#d1d1d1" stop-opacity="0.44"></stop><stop offset="0.81" stop-color="#dfdfdf" stop-opacity="0.3"></stop><stop offset="0.93" stop-color="#f1f1f1" stop-opacity="0.13"></stop><stop offset="1" stop-color="#fff" stop-opacity="0"></stop></radialGradient><style>.silver_svg__cls-1,.silver_svg__cls-2,.silver_svg__cls-3{fill:#fff}.silver_svg__cls-4{fill:#185633}.silver_svg__cls-10,.silver_svg__cls-12,.silver_svg__cls-18,.silver_svg__cls-2,.silver_svg__cls-3,.silver_svg__cls-4,.silver_svg__cls-6,.silver_svg__cls-8{stroke:#000;stroke-miterlimit:10}.silver_svg__cls-12,.silver_svg__cls-3,.silver_svg__cls-4,.silver_svg__cls-8{stroke-width:2px}.silver_svg__cls-6{fill:#7d5629}.silver_svg__cls-10,.silver_svg__cls-6{stroke-width:.38px}.silver_svg__cls-18,.silver_svg__cls-23{fill:silver}.silver_svg__cls-27{mix-blend-mode:color-dodge;opacity:.81}.silver_svg__cls-28{fill:#8ad6b2}.silver_svg__cls-8{fill:#2fac66}.silver_svg__cls-30{fill:#303030}.silver_svg__cls-10{fill:#606060}.silver_svg__cls-2{stroke-width:.89px}.silver_svg__cls-12{fill:none}</style></defs><g style="isolation: isolate;"><g id="silver_svg__Pro"><path d="M58.92 234.21c-1.77 1.12-4.77 1.54-8.02.95-4.28-.77-7.54-3.05-7.94-5.34a2.6 2.6 0 0 1-.01-.84c0-.03 0-.06.01-.09.06-.3.17-.59.33-.86.05.28.13.55.26.82l.15.3.02.03c.21.36.49.72.83 1.06 1.39 1.42 3.81 2.61 6.67 3.13 1.81.33 3.54.34 5.03.09q.87-.135 1.59-.39c.43-.15.83-.32 1.18-.52.09-.05.18-.11.27-.17.09-.05.17-.11.25-.17.03-.03.07-.05.1-.08.03-.02.05-.04.08-.06.06-.05.11-.1.17-.15a.8.8 0 0 0 .13-.13c.17-.17.31-.35.43-.54l.07.02q.06.405 0 .81c-.02.1-.04.19-.07.28-.14.45-.4.87-.76 1.23-.22.23-.48.43-.78.62Z" style="stroke: rgb(0, 0, 0); stroke-miterlimit: 10; fill: rgb(96, 96, 96); stroke-width: 0.27px;"></path><path d="m60.54 231.28-.07-.02.06-.09c0 .04.01.07.01.11Z" style="stroke: rgb(0, 0, 0); stroke-miterlimit: 10; fill: rgb(125, 86, 41); stroke-width: 0.27px;"></path><path d="M54.08 233.78c-.95 0-1.92-.09-2.89-.27-2.81-.51-5.27-1.66-6.74-3.17-.34-.34-.63-.71-.85-1.09-.08-.13-.13-.24-.18-.35a1.5 1.5 0 0 1 .02-1.26c.07-.15.17-.28.28-.39.21-.21.44-.38.66-.53.45-.31 1-.57 1.64-.78.32-.11.67-.2 1.04-.28.83-.17 1.72-.26 2.66-.26s1.92.09 2.89.27c2.98.54 5.61 1.84 7.02 3.46.2.22.38.46.53.71.09.14.16.28.23.42.14.3.17.64.08.97a1.3 1.3 0 0 1-.34.63c-.09.1-.11.12-.15.14l-.12.11-.12.1-.1.08c-.08.07-.17.12-.26.18s-.19.12-.28.17c-.36.21-.77.38-1.2.53-.49.17-1.03.3-1.62.4-.69.11-1.43.17-2.19.17Z" class="silver_svg__cls-23"></path><path d="M49.72 225.56c.91 0 1.88.08 2.87.26 3.06.56 5.6 1.87 6.94 3.42.2.22.37.46.51.69.08.14.16.27.22.41.13.28.15.59.07.88-.05.21-.15.41-.31.58 0 .02-.02.03-.04.05-.03.03-.06.06-.09.08-.05.05-.11.1-.17.15-.03.02-.06.04-.08.06-.03.03-.07.05-.1.08-.08.06-.17.12-.25.17-.09.06-.18.12-.27.17-.35.2-.75.38-1.18.52-.48.17-1.02.3-1.59.39-.68.11-1.4.17-2.17.17-.91 0-1.88-.08-2.86-.26-2.86-.52-5.28-1.71-6.67-3.13-.34-.34-.62-.7-.83-1.06l-.02-.03q-.09-.15-.15-.3c-.17-.37-.15-.79.02-1.15.06-.13.15-.25.25-.35.19-.18.4-.36.64-.51.45-.31 1-.56 1.61-.76q.48-.165 1.02-.27c.8-.17 1.69-.26 2.63-.26m0-.27c-.95 0-1.85.09-2.69.26-.38.08-.73.17-1.05.28-.65.21-1.21.48-1.68.79-.23.15-.46.33-.68.54-.12.12-.23.27-.3.43-.21.43-.22.93-.02 1.37.05.11.1.22.16.32.25.43.54.8.89 1.15 1.49 1.52 3.98 2.69 6.81 3.2.98.18 1.96.27 2.91.27.77 0 1.51-.06 2.21-.17.59-.1 1.14-.23 1.64-.41.44-.15.85-.33 1.22-.54.09-.05.19-.11.28-.17.1-.07.2-.13.28-.2l.1-.07.08-.07.19-.17s.05-.04.08-.08c.03-.03.05-.06.08-.08.18-.19.3-.43.36-.68.09-.34.06-.72-.09-1.05-.07-.15-.15-.29-.24-.44-.15-.26-.33-.5-.54-.73-1.43-1.65-4.08-2.96-7.09-3.5-.98-.18-1.96-.27-2.92-.27Z"></path><g class="silver_svg__cls-27"><path d="m59.65 232.14-2.56-.71-.2-.05-9.56-2.63-.07-.02-3.69-1.02c.06-.13.15-.25.25-.35.19-.18.4-.36.64-.51l3.89 1.07.41.11 8.52 2.34 3.07.84c-.05.21-.15.41-.31.58a.8.8 0 0 1-.13.13c-.05.05-.11.1-.17.15-.03.02-.06.04-.08.06Z" class="silver_svg__cls-1"></path></g><g class="silver_svg__cls-27"><path d="M57.85 233.08c-.48.17-1.02.3-1.59.39l-11.7-3.22c-.34-.34-.62-.7-.83-1.06l4.11 1.13 10.02 2.76Z" class="silver_svg__cls-1"></path></g><g class="silver_svg__cls-27"><path d="m60.04 229.94-4.72-1.3h-.02l-3.12-.87-6.11-1.68q.48-.165 1.02-.27l12.44 3.42c.2.22.37.46.51.7" class="silver_svg__cls-1"></path></g><ellipse cx="52.31" cy="229.79" rx="1.97" ry="5.18" transform="rotate(-79.72 52.312 229.785)"></ellipse><ellipse cx="52.27" cy="230.03" class="silver_svg__cls-30" rx="1.97" ry="5.18" transform="rotate(-79.72 52.267 230.022)"></ellipse><path d="M55.07 232.77c-1.3-1.75-2.38-3.63-3.25-5.63 1.3 1.75 2.38 3.63 3.25 5.63" class="silver_svg__cls-1"></path><path d="M50.28 231.49c1.96-1.23 4.03-2.24 6.21-3.02a31.8 31.8 0 0 1-6.21 3.02" class="silver_svg__cls-1"></path><path d="M40.3 207c-2.68-1.31-5.44-4.64-7.15-9.01-2.26-5.77-1.94-11.43.55-13.62.3-.27.64-.48 1-.64.04-.02.07-.04.11-.05.41-.16.85-.24 1.28-.24-.3.26-.57.57-.8.93-.09.13-.17.27-.25.41l-.03.05c-.28.53-.51 1.13-.67 1.8-.68 2.75-.32 6.57 1.19 10.43.95 2.44 2.24 4.55 3.65 6.17.54.63 1.1 1.18 1.67 1.64.5.41 1.01.76 1.51 1.04.13.07.27.14.41.21.13.06.26.13.4.18.06.02.11.05.17.07.04.02.09.03.14.05l.31.09c.09.03.17.05.25.06.33.08.66.12.98.12l.03.1c-.3.26-.62.45-.99.59-.13.05-.26.09-.39.13-.65.17-1.35.17-2.06 0-.44-.1-.89-.26-1.33-.49Z" class="silver_svg__cls-10"></path><path d="m45.07 206.76-.03-.1h.15c-.04.04-.08.07-.12.1Z" class="silver_svg__cls-6"></path><path d="M44.43 206.77c-.14 0-.27-.01-.4-.04l-.12-.02c-.06-.01-.11-.03-.17-.05l-.25-.07-.28-.1c-.22-.08-.36-.15-.5-.22-.15-.08-.29-.14-.42-.21-.52-.28-1.04-.64-1.54-1.06-.57-.46-1.14-1.02-1.69-1.66-1.48-1.7-2.75-3.85-3.68-6.23-1.48-3.79-1.92-7.63-1.2-10.55.16-.67.39-1.29.68-1.85.11-.2.19-.34.29-.48.35-.52.92-.86 1.54-.91h.21c.16 0 .32.02.47.05.41.1.79.24 1.14.41.71.32 1.44.8 2.17 1.41.37.3.74.66 1.11 1.05 1.68 1.77 3.11 4.1 4.15 6.74 1.57 4.02 1.96 8.17 1.05 11.1-.12.41-.28.8-.47 1.17-.11.21-.22.4-.34.59-.26.39-.66.68-1.11.82-.19.07-.4.1-.62.1Z" class="silver_svg__cls-23"></path><path d="M36.9 183.51c.14 0 .29.02.42.05.36.09.73.22 1.1.39.71.32 1.43.79 2.13 1.39.37.31.74.66 1.1 1.04 1.59 1.67 3.05 3.97 4.11 6.67 1.61 4.12 1.92 8.19 1.04 10.97-.12.41-.28.8-.46 1.14-.1.2-.22.39-.33.58-.24.36-.6.62-1.01.74a1.8 1.8 0 0 1-.93.05h-.01c-.02 0-.05 0-.07-.01-.06-.02-.12-.03-.17-.05-.1-.03-.2-.06-.31-.09-.05-.02-.09-.03-.14-.05-.06-.02-.11-.05-.17-.07-.14-.05-.27-.11-.4-.18-.14-.07-.27-.13-.41-.21-.5-.28-1.01-.63-1.51-1.04-.57-.46-1.13-1.01-1.67-1.64-1.41-1.62-2.7-3.73-3.65-6.17-1.51-3.86-1.87-7.68-1.19-10.43.16-.67.39-1.28.67-1.8l.03-.05c.08-.14.16-.28.25-.41.33-.48.85-.78 1.4-.83h.19m0-.38c-.08 0-.15 0-.23.01-.68.06-1.3.43-1.68 1-.1.14-.19.29-.27.44l-.03.05c-.3.57-.54 1.21-.7 1.9-.73 2.95-.29 6.83 1.21 10.66.94 2.39 2.22 4.57 3.72 6.28.56.65 1.14 1.22 1.72 1.68.51.42 1.04.79 1.57 1.08.13.07.26.14.4.2.17.08.31.15.46.2l.06.02.11.04.14.05h.01l.04.02.28.08s.08.03.15.05h.01l.04.01c.04 0 .08.01.11.02.13.03.27.04.4.04q.36 0 .69-.12c.48-.15.91-.47 1.2-.89a6.806 6.806 0 0 0 .85-1.82c.93-2.96.54-7.16-1.05-11.22-1.04-2.66-2.49-5.01-4.18-6.8-.38-.4-.76-.76-1.13-1.07-.74-.63-1.49-1.11-2.22-1.44-.35-.17-.74-.31-1.16-.42-.17-.04-.34-.06-.52-.06Z"></path><g class="silver_svg__cls-27"><path d="m43.36 206.34-1.06-3.64-.08-.28-3.96-13.57-.03-.1-1.53-5.23c.2-.02.41 0 .61.04.36.09.73.22 1.1.39l1.61 5.51.17.58 3.52 12.08 1.27 4.35c-.29.1-.62.12-.93.06a.8.8 0 0 1-.25-.06c-.1-.03-.2-.06-.31-.09-.05-.02-.09-.03-.14-.05Z" class="silver_svg__cls-1"></path></g><g class="silver_svg__cls-27"><path d="M40.87 204.85c-.57-.46-1.13-1.01-1.67-1.64l-4.84-16.6c.16-.67.39-1.28.67-1.8l1.7 5.82 4.15 14.22Z" class="silver_svg__cls-1"></path></g><g class="silver_svg__cls-27"><path d="m46.33 205.16-1.96-6.7v-.04l-1.3-4.43-2.53-8.66c.37.31.74.66 1.09 1.04l5.15 17.65c-.12.41-.28.8-.46 1.14Z" class="silver_svg__cls-1"></path></g><ellipse cx="40.73" cy="195.68" rx="2.81" ry="7.38" transform="rotate(-21.37 40.74 195.7)"></ellipse><ellipse cx="40.41" cy="195.81" class="silver_svg__cls-30" rx="2.81" ry="7.38" transform="rotate(-21.37 40.413 195.83)"></ellipse><path d="M39.17 201.25c1.15-2.88 2.63-5.61 4.4-8.15a40 40 0 0 1-4.4 8.15" class="silver_svg__cls-1"></path><path d="M37.15 194.49c2.96 1.46 5.74 3.22 8.31 5.28a45.4 45.4 0 0 1-8.31-5.28" class="silver_svg__cls-1"></path><path d="M43.97 274c2.2 1.4 4.43 2.69 6.69 3.89h88.69c13.51-7.23 25.38-17.88 34.16-31.67 27.61-43.33 14.38-101.16-29.55-129.15S42.03 101.52 14.42 144.85C-13.19 188.19.04 246.01 43.97 274" style="fill: url(&quot;#silver_svg__radial-gradient&quot;);"></path><path d="M154.08 168.02h-.01" style="stroke: rgb(0, 0, 0); stroke-miterlimit: 10; fill: none; stroke-width: 1.38px;"></path><ellipse cx="221.43" cy="170.61" rx="116.15" ry="114.58" style="fill: url(&quot;#silver_svg__radial-gradient-2&quot;);" transform="rotate(-69.01 221.438 170.609)"></ellipse><rect width="61.77" height="36.5" x="221.71" y="184.82" class="silver_svg__cls-23" rx="3.47" ry="3.47" transform="rotate(-24.64 252.617 203.067)"></rect><rect width="10.56" height="10.56" x="227.01" y="202.07" rx="2.1" ry="2.1" style="stroke: rgb(0, 0, 0); stroke-miterlimit: 10; stroke-width: 0.79px;" transform="rotate(-24.64 232.298 207.36)"></rect><path d="m231.64 221.82 48.84-22.41" style="stroke: rgb(0, 0, 0); stroke-miterlimit: 10; fill: none; stroke-width: 0.79px;"></path><path d="M253.87 206.1a1.13 1.13 0 0 1-.63-.23c-.19-.14-.33-.33-.45-.58a2.5 2.5 0 0 1-.16-.48l-.17-.8.57-.26.17.8c.02.09.05.17.08.23.09.19.21.31.38.37s.35.04.55-.06l.6-.27c.19-.09.31-.2.38-.34l-.11-.18-.59.27c-.19.09-.38.1-.55.02a.7.7 0 0 1-.39-.38c-.01-.03-.03-.07-.05-.13l-.27-.97c-.06-.22-.06-.45 0-.66.06-.22.18-.4.37-.55l.22-.18.53.55-.36.29q-.09.075-.12.18a.3.3 0 0 0 0 .21l.26.91.6-.28c.17-.08.33-.09.48-.04.16.04.28.15.38.31l.1.17s.04.06.06.12c.09.19.12.4.1.6-.02.21-.11.4-.25.59-.15.18-.36.34-.63.46l-.36.16c-.25.12-.5.17-.73.15ZM254.72 200.91l.58-.48 1.49 3.25-.58.48zM257.25 201.97c-.14-.31-.17-.6-.09-.89s.25-.53.51-.74l.58-.46-.13-.29.58-.47.88 1.92c.05.11.12.18.22.21.09.03.19.03.29-.02l.18-.08c.07-.03.14-.01.23.05s.15.15.21.27c.05.12.07.22.07.33s-.05.17-.11.2l-.24.11c-.14.06-.28.1-.42.11-.14 0-.27-.02-.4-.08l-.08.38-.85.39a.765.765 0 0 1-.59 0l-.33-.15-.37-.57c-.05-.08-.09-.15-.12-.22Zm1.88-.26c-.07-.09-.13-.19-.19-.3l-.37-.8-.52.41c-.22.18-.27.39-.17.62.01.02.03.06.06.1l.25.38.92-.42Z" class="silver_svg__cls-1"></path><path d="m259.53 197.07.69-.32.3.66-.69.32zm.89 4.89q-.12-.09-.21-.27c-.09-.18-.08-.23-.07-.33s.05-.17.11-.2l1.58-.73.18-.08-.15-.33-.07.09c-.06.08-.14.14-.23.18l-.55.25c-.16.08-.33.09-.49.04a.7.7 0 0 1-.4-.3l-.24-.38c-.04-.07-.08-.13-.11-.19-.12-.27-.15-.53-.08-.79s.22-.48.47-.67l.81-.6.36.1c.09.02.17.07.24.13s.13.14.17.22l.89 1.94c.08.17.11.34.09.5-.01.17-.07.32-.17.46s-.23.24-.4.32l-1.5.69c-.07.03-.14.02-.23-.04Zm.71-3.53-.61.46a.42.42 0 0 0-.18.23c-.03.08-.02.17.03.26 0 .02.03.06.07.12l.25.37.92-.42-.47-1.01ZM263.84 200.49l.19-.2-.99-2.15.6-.43.56 1.22q.075.15.21.21c.09.03.19.03.28-.01l.26-.12c.07-.03.14-.01.23.05q.12.09.21.27c.09.18.08.23.07.33 0 .1-.05.17-.11.2l-.23.1c-.22.1-.41.1-.59.01l.06.14c.16.4.12.73-.14 1l-.56.61-.66-.56.61-.65Z" class="silver_svg__cls-1"></path><path d="M265.11 199.8q-.12-.09-.21-.27c-.09-.18-.08-.23-.07-.33 0-.1.05-.17.11-.2l1.8-.82-.4-.64c-.1-.15-.21-.25-.35-.29a.54.54 0 0 0-.43.03c-.02.01-.06.03-.12.07l-.7.47-.26-.76.58-.39c.06-.04.14-.09.23-.13.3-.14.6-.16.89-.07s.53.28.72.58l.53.83.46-.21.15.96-2.7 1.24c-.07.03-.14.02-.23-.04ZM269.44 196.23l.17.81c.02.09.04.17.07.23.09.19.21.31.38.37.17.05.35.04.55-.05l.62-.29c.07-.03.13-.06.17-.09s.08-.06.12-.1l-1.04-2.23.58-.47.53 1.15c.05.09.13.16.22.19.1.03.2.02.31-.03l.2-.09c.07-.03.14-.01.23.05.08.06.15.15.21.26s.07.22.06.33c0 .11-.04.17-.11.21l-.12.05c-.18.08-.36.1-.54.04l.13.31c.09.28.08.53-.03.76s-.32.41-.61.55l-.55.25c-.38.18-.74.2-1.06.09s-.57-.36-.74-.74a2.5 2.5 0 0 1-.16-.48l-.17-.81.57-.26Zm-.25-.93.69-.32.3.66-.69.32z" class="silver_svg__cls-1"></path><path d="M272.21 195.82c0-.1.05-.17.11-.2l.36-.17c.18-.08.31-.19.37-.32l-1.02-2.17.58-.48.97 2.11c.05.11.12.18.22.22s.21.03.33-.02l.2-.09c.07-.03.14-.01.23.05.08.06.15.15.21.26.05.12.08.22.07.33 0 .11-.05.17-.11.2l-.22.1c-.3.14-.55.11-.76-.07-.04.15-.11.29-.22.41s-.25.22-.43.3l-.38.17c-.07.03-.14.02-.23-.04q-.12-.09-.21-.27c-.09-.18-.08-.23-.07-.33Z" class="silver_svg__cls-1"></path><path d="M274.49 195.5a.8.8 0 0 1-.21-.26.7.7 0 0 1-.07-.33c0-.1.05-.17.11-.2l.46-.21c.2-.09.34-.21.42-.34l-.98-1.32.51-.61.86 1.16c.09.12.15.23.2.33.1.22.14.43.12.64s-.1.4-.23.57-.32.31-.54.41l-.43.2c-.07.03-.14.01-.23-.05Zm1.77-.03.27.6-.4.18.28.56-.64.29-.25-.58-.4.18-.27-.6 1.4-.64Z" class="silver_svg__cls-1"></path><text style="fill: silver; font-family: RokhFaNum-UltraBold, RokhFaNum; font-size: 10.28px; font-weight: 700;" transform="rotate(-24.64 598.979 -424.619)"><tspan x="0" y="0">$</tspan></text><path d="M261 191.36c.35.06.71.01 1.04-.14l.48-.21c.22-.09.42-.23.59-.4s.3-.38.38-.61c.02-.05.03-.09.05-.14.02.01.05.02.07.03s.03.02.05.03a1.85 1.85 0 0 0 2.39-1.05c.02-.05.03-.09.05-.14.04.02.09.04.13.06a1.85 1.85 0 0 0 2.39-1.05c.03-.09.06-.18.07-.27.05.02.09.04.14.06.26.11.53.17.81.17s.56-.06.81-.17l.06-.03c.26-.11.49-.27.68-.47s.34-.44.43-.71c.1-.26.15-.53.14-.81 0-.28-.07-.55-.18-.8-.11-.26-.27-.49-.47-.68s-.44-.34-.7-.44c-.26-.11-.54-.16-.82-.15a2.161 2.161 0 0 0-1.95 1.36c-.2.49-.21 1.03-.02 1.53l.16.36c.05.12.08.25.09.38 0 .13-.02.26-.07.39-.04.12-.11.23-.2.32s-.19.17-.31.22-.24.08-.37.08-.25-.03-.37-.08q-.18-.075-.33-.21c-.09-.09-.17-.2-.22-.32l-.93-2.13-.11.05a.8.8 0 0 0-.4.41.75.75 0 0 0 .01.57l.63 1.44c.05.12.08.25.09.38 0 .13-.02.26-.07.39-.04.12-.11.23-.2.32s-.19.17-.31.22-.24.08-.37.08-.25-.03-.37-.08c-.18-.07-3.02-1.99-3.02-1.99l1.6-2.62-.1-.06a.79.79 0 0 0-.56-.09c-.19.05-.36.17-.46.34l-1.31 2.18c-.08.14-.11.3-.07.46s.13.29.27.38l2.27 1.51s.08.07.1.11.03.1.02.15a1.091 1.091 0 0 1-.24.53c-.09.09-.19.17-.31.22l-.48.21c-.12.05-.24.08-.37.08s-.25-.03-.37-.08m0 0c-.12-.05-.24-.12-.33-.21s-.17-.2-.22-.32l-.12-.27c-.11-.25-.27-.48-.47-.68s-.44-.34-.7-.44c-.53-.21-1.11-.19-1.63.03s-.93.65-1.13 1.18c-.11.26-.16.53-.16.81s.06.55.18.8 0 .02 0 .02c.11.26.27.49.47.68s.44.34.7.44c.33.13.68.17 1.04.13.35-.04.68-.17.97-.38.25-.17.46-.39.61-.66.08.26.08.54 0 .79-.11.31-.33.54-.67.68-.23.1-.49.13-.74.1l-.17-.02h-.19c-.13.02-.25.06-.35.14-.11.07-.19.17-.25.28l-.05.1.09.06c.09.05.56.31 1.37.27.21-.02.42-.08.62-.16.57-.25.95-.64 1.14-1.16.15-.41.16-.85.02-1.32m-1.47-1.3c.12.3.12.64 0 .94-.05.16-.14.3-.26.42-.11.12-.25.22-.41.28-.31.13-.66.14-.98.01-.32-.12-.57-.36-.71-.67q-.06-.15-.09-.3a1.3 1.3 0 0 1 0-.4 1.454 1.454 0 0 1 .34-.71c.12-.12.26-.22.41-.29a1.16 1.16 0 0 1 .97-.01c.3.12.55.35.69.64l.04.08Zm11.29-4c-.05.16-.14.3-.26.42-.11.12-.25.22-.41.28-.31.13-.67.14-.98.01s-.57-.37-.71-.67a1.2 1.2 0 0 1-.01-.99c.06-.16.14-.31.26-.43s.25-.22.41-.29c.15-.07.32-.1.49-.11.17 0 .33.03.49.1.32.12.57.37.71.68s.15.67.02.98Z"></path><path d="m263.81 184.37-.45.2.05.11a.8.8 0 0 0 .41.4c.18.07.39.07.57-.01l.45-.2-.05-.11a.746.746 0 0 0-.98-.38ZM260.02 186.61l.78-1.29-.1-.06a.73.73 0 0 0-.56-.08c-.19.05-.36.17-.46.34l-.78 1.29.1.06c.17.1.37.13.56.08s.36-.17.46-.34M255.75 191.87c.15.1.28.24.35.41.13.3.16.61.1.91-.02.1-.04.19-.08.28a1.6 1.6 0 0 1-.82.86l-.8.35c-.79.34-1.7-.02-2.04-.8-.02-.04-.03-.08-.05-.12s-1.28-2.92-1.28-2.92a.7.7 0 0 1 .36-.93l.12-.05 1.57 3.6c.18.41.66.6 1.07.42l.67-.29c.31-.14.5-.45.49-.77 0-.1-.05-.18-.13-.24l-1.37-.92-.1-.07-.61-.41-.09-.05a.7.7 0 0 1-.23-.97l1.3-2.11a.7.7 0 0 1 .97-.23l.12.07-1.6 2.6 1.36.92.7.47ZM252.5 195.27s.02.05.03.07a1.575 1.575 0 0 1-.82 2.08l-.31.13-.14-.32c-.06-.17-.06-.26 0-.39a.45.45 0 0 1 .22-.23l.13-.1c.2-.24.25-.58.12-.88l-1.28-2.93a.7.7 0 0 1 .36-.93l.12-.05 1.56 3.57Z"></path><path d="m250.09 193.15.65 1.48c.13.3.16.61.1.91a1.524 1.524 0 0 1-.32.69c-.15.19-.35.34-.58.44L246.9 198c-.23.1-.48.14-.72.13h-.03c-.55-.05-1.06-.38-1.3-.92-.02-.04-.03-.08-.05-.12s-.6-1.36-.6-1.36l.12-.05a.71.71 0 0 1 .93.36l.33.75c.18.41.66.6 1.07.42l2.91-1.27.06-.03c.34-.19.47-.62.31-.98l-.34-.78a.62.62 0 0 1-.03-.46c.05-.2.19-.38.4-.46l.12-.05Z"></path><path d="m246.117 194.867 1.402-.613a.717.717 0 0 1 .948.371l.056.129-1.365.596a.77.77 0 0 1-1.014-.397l-.036-.082ZM197.09 265.89c-1.99-.45-4.03-1.05-5.58-2.38-2.8-2.41-3.27-6.62-2.61-10.25.26-1.44.79-3 2.07-3.69.78-.42 1.7-.44 2.59-.44 2.57-.02 5.17 0 7.68.59 1.76.42 3.45 1.12 5.21 1.55 6.71 1.64 13.64-.78 20.42-2.12.54-.11 1.09-.21 1.63-.16.83.07 1.6.47 2.29.94 2.51 1.73 4.06 4.67 4.34 7.69.38 4.19 5.2 6.64 1.62 7.92-6.72 2.4-20.58 1.92-27.71 1.8-4.02-.07-8.04-.55-11.96-1.44Z"></path><path d="M225.49 242.33s-7.95 13.39 3.93 20.45c11.88 7.05 23.18-5.96 23.18-5.96s3.84-5.43 4.67-8.82 11.44-4.4 12.72-11.39c1.29-6.99-5.17-15.39-5.17-15.39s-2.82-3.07-4.81-3.84-5.84-9.16-10.11-9.86-6.38 4.4-6.38 4.4-1.04 2.13 5.42 9.52l-3.91-2.68s-4.02-.98-5.28-3.44-6.85 2.06-6.85 2.06-4.3 4.92 8.67 14.74l-9-7.04s-5.52-5.91-10.81-1.27 1.29 10.24 1.29 10.24-1.44 3.92 2.42 8.27Z" class="silver_svg__cls-2"></path><path d="M266.61 228.38c-1.35 2.46-5.83 5.09-8.45 3.19 1.55.43 3.07 0 4.45-.7 1.36-.76 2.85-1.4 4-2.5ZM252.44 234.93c.41 3.82.21 6.75-4.27 7.37 4.28-2.13 3.28-3.35 4.27-7.37M238.29 253.97c-5.63.64-11.22-4.9-12.54-10.09-.3-2.46.84-4.62 2.1-6.59.64-.92 1.56-1.84 2.71-2-1.02.49-1.62 1.41-2.07 2.37-1.34 2.85-2.25 6.02-.08 8.71 2.29 3.63 5.44 6.89 9.88 7.59ZM237.51 228.35c1.82 1.15 3.97 1.95 4.96 4.02.83 3.38 1.44 6.56 2.18 9.97-.82-1.12-1.46-2.36-1.97-3.64-.79-1.81-1.17-3.99-1.54-5.86-.7-1.68-2.62-2.87-3.62-4.49ZM245.05 218.77c2.41 1.14 4.59 3.08 6.67 4.7.74.61 1.41 1.01 2.18 1.66 1.48 1.37 1.61 3.49 2.19 5.3.46 1.75.87 3.52 1.15 5.33-1.26-2.44-2.25-4.96-3.19-7.52-.32-.85-.58-1.57-1.13-2-2.96-2.1-5.36-4.86-7.87-7.48Z"></path><path d="M238.03 229.25c-2.33.05-4.26.92-5.85 2.61.59-2.34 3.71-3.73 5.85-2.61M262.22 218.9c-3.28-.1-6.18.58-8.45 3.06.8-3.49 5.6-4.86 8.45-3.06M251.79 223.77c-.68-.22-1.26.14-1.89.4-.63.28-1.27.52-1.92.75-1.23.51-2.71.52-3.57 1.65.32-1.48 2.12-1.88 3.32-2.36 1.24-.28 2.87-1.29 4.05-.44ZM261.42 244.74c-2.32 2.48-5.91 4.38-9.38 3.75 3.4-.65 6.27-2.27 9.38-3.75"></path><path d="M82.27 213.38c3.65 5.12 7.59 10.15 9.93 15.99 5.79 14.43.88 30.74 1.66 46.28.04.74.09 1.49.16 2.24h92.44c7.52-10.85 14.62-30.04 17.08-40.66 2.83-12.26 3.37-24.92 3.62-37.5.21-10.54.23-21.09-.48-31.61-.9-13.37-3.05-26.87-8.77-38.99-7.66-16.26-21.76-29.38-38.54-35.84-14.09-5.43-28.65-5.5-43.25-2.44-11.79 2.46-22.83 3.2-33.09 10.39-6.07 4.25-11.25 9.79-15.05 16.15-2.4 4.01-4.28 8.28-5.66 12.72-3.73 11.81-4 24.78-1.54 37 3.37 16.79 11.56 32.31 21.49 46.27Z" style="stroke: rgb(0, 0, 0); stroke-miterlimit: 10; stroke-width: 2px; fill: rgb(249, 178, 51);"></path><path d="M101.05 108.55c6.4-.42 12.84.35 19.22-.22 9.07-.79 17.95-4.25 27.02-3.44 11.81 1.05 22.04 9.4 28.14 19.57 6.09 10.18 8.66 22.05 10.57 33.75 3.99 24.38 5.5 49.69-.97 73.52-4.81 17.69-14.57 34.54-28.51 46.16h29.94c7.52-10.85 14.62-30.04 17.08-40.66 2.83-12.26 3.37-24.92 3.62-37.5.21-10.54.23-21.09-.48-31.61-.9-13.37-3.05-26.87-8.77-38.99-7.66-16.26-21.76-29.38-38.54-35.84-14.09-5.43-28.65-5.5-43.25-2.44-11.79 2.46-22.83 3.2-33.09 10.39-6.07 4.25-11.25 9.79-15.05 16.15-2.4 4.01-4.28 8.28-5.66 12.72 9.08-12.21 23.49-20.56 38.73-21.56" style="opacity: 0.3; fill: rgb(249, 178, 51); mix-blend-mode: multiply;"></path><path d="M121.76 94.29c.48 2.18.94 4.71-.47 6.44-1.09 1.34-2.96 1.74-4.68 1.83-.88.05-1.78.04-2.64-.19-1.83-.5-3.27-1.98-4.08-3.69s-1.07-3.63-1.18-5.52a38.5 38.5 0 0 1 4.72-20.7c1.55-2.79 3.94-5.43 7.41-4.41 2.81.83 5.26 3.41 4.31 6.24-.97 2.89-3.52 4.66-4.18 7.95-.8 3.99-.08 8.13.78 12.05Z" style="fill: rgb(43, 39, 40);"></path><path d="M102.42 242.49c.08-3.36.16-6.76-.52-10.06-.92-4.47-3.18-8.53-5.39-12.52-3.12-5.65-6.18-11.34-9.19-17.05-3.21-6.11-6.36-12.26-8.92-18.67-6-15.06-8.58-31.94-4.37-47.59s16-29.73 31.63-34.02c-5.24 3.14-9.56 7.63-13.33 12.44-3.06 3.89-5.82 8.05-7.83 12.57-5.81 13.03-5.04 28.03-2.54 42.08 2.26 12.68 8.27 28.62 15.49 39.28 4.69 6.93 9.15 16.45 9.15 16.45.87 1.49 2.65 10 2.47 14.26-.28 6.87-.86 13.72-1.72 20.54-.31 2.47-.69 5.01-1.91 7.18-.71 1.26-1.66 2.38-2.91 3.09-2.11-1.87-.54-10.27-.47-13.13l.36-14.84Z" class="silver_svg__cls-1"></path><path d="M135.8 76.54c-1.75 2.18-1.56 5.68.42 7.66-.43-.58-1.4-.47-1.89.05s-.61 1.3-.6 2.02c.04 4.96 4.57 8.72 9.13 10.66 3.39 1.44 7 2.29 10.59 3.14l16.07 3.78c1.77.42 3.69.82 5.36.09 1.76-.77 2.8-2.66 3.14-4.54.63-3.49-.79-7.13-3.08-9.84s-5.39-4.62-8.55-6.24c-5.34-2.74-11.26-4.83-17.24-4.34-2.16.17-4.28.68-6.38 1.18-2.74.65-5.48 1.31-8.22 1.96-.29.07-.67.09-.79-.18s.52-.34.36-.1l1.68-5.31Z" style="fill: rgb(249, 178, 51); mix-blend-mode: multiply; opacity: 0.47;"></path><path d="M143.48 60.69c3.33-1.18 6.79-1.98 10.28-2.51 21.48-3.23 43.49 4.11 61.73 15.91 11.01 7.12 20.91 15.81 30.56 24.68 1.84 1.69 3.81 3.65 3.98 6.15.04.61-.04 1.26-.43 1.73-.55.66-1.52.76-2.38.79-19.95.86-39.85-2.06-59.6-4.98-19.62-2.9-40.11-6.14-56.11-17.86-2.36-1.73-6.97-3.84-8.72-6.01-2.07-2.54 1.28-4.94 3.56-7.17a47.3 47.3 0 0 1 17.14-10.73Z" class="silver_svg__cls-8"></path><path d="M124.84 77.13c6.26-6.23 15.08-5.77 23.23-5.54 13.68.04 27.23 2.79 40.25 6.84 20.78 6.55 40.72 15.87 58.87 27.9-14.2-7.98-28.89-14.98-44.13-20.7-17.67-6.64-36.08-12-55.03-12.74-8.17-.51-16.47-1.48-23.19 4.24" class="silver_svg__cls-28"></path><path d="M145.05 72.2c2-.1 2.79-2.14 4.12-3.35 2.28-2.24 5.27-3.62 7.98-5.06 4.45-2.21 9.14-4.25 14.11-4.89-5.18 2.48-11.37 5.8-16.54 8.31-2.23 1.06-4.26 2.12-6.13 3.77-.95.76-2.27 1.7-3.54 1.23ZM160.26 72.97c12.3-1.84 23.71-7.09 36.04-8.71-11.55 4.27-23.46 9.62-36.04 8.71M190.22 80.23c6.7-2.07 14.39-4.19 21.2-5.83-6.31 3.89-13.8 5.93-21.2 5.83" class="silver_svg__cls-28"></path><path d="M145.42 72.16c4.52 2.51 6.75 7.69 9.28 11.87 2.45 4.35 5.97 7.68 10.39 10.08-5.14-.88-9.54-4.58-12.1-9.05-2.59-4.4-4.08-9.1-7.56-12.9ZM166.45 73.94c3.53 3.69 7.62 8.37 11.16 12.08 1.25 1.33 2.52 2.65 3.74 4.09-3.43-1.57-6.37-3.98-8.93-6.72-2.51-2.77-4.69-5.91-5.97-9.45M190.44 80.04c2.22 2.78 5.34 6.72 7.76 9.24 2.34 2.57 6.08 6 8.67 8.39-7.66-3.04-13.93-9.78-16.44-17.63Z" class="silver_svg__cls-28"></path><path d="M79.9 148.85c-5.6 1.06-11.26 3.37-14.72 7.89-4.3 5.63-4.3 13.36-3.78 20.43.09 1.21.21 2.48.89 3.48 1.37 2 4.25 2.05 6.67 1.89.97-.06 1.97-.14 2.84-.58 1.39-.71 2.18-2.28 2.39-3.83.22-1.55-.04-3.12-.23-4.67-.1-.8-.17-1.64.09-2.4.41-1.19 1.57-1.98 2.79-2.3s2.49-.25 3.74-.21c2.39.07 4.79 0 7.17-.2 1.73-.15 3.61-.45 4.76-1.75.68-.77 1-1.78 1.29-2.77a90 90 0 0 0 2.06-8.71c.3-1.63 1.79-6.1.62-7.57-1.09-1.36-5.99.04-7.61.19-3 .28-6 .54-8.96 1.1Z" class="silver_svg__cls-8"></path><path d="M218.09 172.9c-.02 1.82-1.68 14.61-2.07 16.78-.65 3.57-1.97 6.66-4.66 8.24 0 0-1.28 1.06-9.29 1.74-2.88.24-8.91 0-11.19-.02-3.57-.02-6.84.34-10.74-4.29 0 0-8.58-13.17-9.47-15.31-.57-1.37-5.61-1.16-6.57-.04-4.94 5.77-10.61 13.24-15.88 18.72-.91.95-1.84 1.9-2.95 2.58-1.48.91-3.21 1.3-4.92 1.63a91.5 91.5 0 0 1-29.53.82c-3.61-.49-7.38-1.28-10.12-3.69-2.38-2.08-3.72-5.08-4.84-8.04-.81-2.13-3.2-9.62-4.04-16.39-1.15-9.25-1.78-20.97-1.66-23.54.3-6.39 3.87-9.87 9.93-11.95 2.81-.96 8.72-1.31 15.12-1.4 8.24-.11 16.47-.21 24.71-.32 3.57-.05 7.2-.08 10.63.9 4.24 1.21 8.23 4.23 8.86 8.89.18 1.32.68 2.59 1.65 3.5 3.67 3.43 6.85-.32 7.91-3.64.85-2.64 1.45-5.76 3.87-7.1.99-.55 2.15-.7 3.28-.82 10.85-1.19 21.83-1.21 32.68-.05 1.18.13 2.35.43 3.38 1.01 6.06 3.43 5.65 4.36 5.89 10.1.29 6.88.03 16.09-.01 21.68Z" class="silver_svg__cls-8"></path><path d="M120.06 204.53c-4.89-1.49-9.83-4.77-13.11-8.69-9.02-10.77-13.79-25.39-11.35-39.23.5-2.82 1.29-5.63 2.78-8.08 1.33-2.2 3.18-4.06 5.3-5.53 3.85-2.68 6.88-4.46 11.56-4.25M197.76 199.77c-3.96-.22-7.53-2.41-10.18-5.36s-4.56-6.48-6.68-9.83c-.94-1.48-1.96-2.97-3.42-3.93-2.54-1.67-10.15-1.38-10.06-1.56" class="silver_svg__cls-12"></path><path d="M150.81 179.43c-.75 1.84-1.59 3.65-2.76 5.25-2.94 4-4.23 4.95-9.1 5.9-.3.06-.66.12-1.05.17-4.61.65-14.81.95-20.45.48-3.73-.31-4.47-.74-7.35-3.11-1.92-1.59-3.22-3.79-4.3-6.03a50.3 50.3 0 0 1-4.9-18.34c-.15-2.23-.15-4.52.56-6.64 2.03-6.05 8.95-4.64 14.08-4.79 6.36-.18 12.72-.3 19.08-.34 2.58-.01 5.17-.02 7.75-.01 1.02 0 2.04 0 3.06.01 2.46.02 5.29.22 6.74 2.2.46.64.72 1.39.95 2.14 2.24 7.57.67 15.8-2.31 23.11ZM207.22 185.62c-.26.8-.57 1.63-1.21 2.18-.49.42-1.13.63-1.75.81-1.12.32-2.28.54-3.45.67-4.1.44-8.33-.36-11.61-2.81-5.4-4.05-6.96-11.36-8.14-18.01-.57-3.23-1.14-6.48-1.15-9.76 0-1.77.24-3.71 1.51-4.94 1.23-1.18 3.08-1.38 4.78-1.47 3.37-.19 6.75-.22 10.12-.11.8.03 1.79 0 2.85-.01 2.53-.04 5.45-.03 7.16.89 2.03 1.08 1.69 3.35 1.77 5.41.13 3.6.25 7.2.38 10.81.19 5.48.37 11.09-1.26 16.34Z" class="silver_svg__cls-4"></path><path d="M145.13 169.83c-.23 3.16-.8 6.29-1.66 9.34-1.17 4.12-2.98 8.2-5.57 11.58-4.61.65-14.81.95-20.45.48-3.73-.31-4.47-.74-7.35-3.11-1.92-1.59-3.22-3.79-4.3-6.03a50.3 50.3 0 0 1-4.9-18.34c-.15-2.23-.15-4.52.56-6.64 2.03-6.05 8.95-4.64 14.08-4.79 6.36-.18 12.72-.3 19.08-.34 2.58-.01 5.17-.02 7.75-.01.25.39.47.8.63 1.23 1.97 5.25 2.54 11.07 2.13 16.63ZM201.93 173.22c-.13 4.28-.36 8.57-.69 12.84-.08 1.07-.18 2.17-.43 3.22-4.1.44-8.33-.36-11.61-2.81-5.4-4.05-6.96-11.36-8.14-18.01-.57-3.23-1.14-6.48-1.15-9.76 0-1.77.24-3.71 1.51-4.94 1.23-1.18 3.08-1.38 4.78-1.47 3.37-.19 6.75-.22 10.12-.11.8.03 1.79 0 2.85-.01.33.72.71 1.42.9 1.99.66 1.99 1.1 4.05 1.4 6.12.62 4.28.59 8.63.46 12.94Z" class="silver_svg__cls-3"></path><path d="M128.74 222.07c-1.48-4.3-1.12-10.14 2.76-13.07-2.7 3.85-2.79 8.5-2.76 13.07M131.36 215.56c12.54 8.13 28.27 14.07 43.17 9.53-1.77.73-3.61 1.31-5.5 1.71-13.39 2.56-27.26-2.99-37.67-11.23ZM139.85 224.43c3.24 4.71 8.78 7.07 14.32 7.51.8.08 1.61.08 2.44.17-.8.14-1.62.23-2.44.32-5.72.38-12.12-2.44-14.31-8ZM112.96 252.35c1.96.83 4.01 1.49 5.81 2.64s3.35 2.89 3.65 5c.32 2.24-.83 4.46-2.39 6.09-2.85 3-7.1 4.51-11.24 4.39s-8.15-1.77-11.46-4.26c-8.42-6.33-11.99-18.39-8.35-28.28.88-2.38 2.62-6.22 5.33-4.11 2.02 1.58 3.09 5.82 4.78 7.96 3.65 4.6 8.47 8.28 13.87 10.57M195.96 135.27c-6.45-3.69-13.22-5.96-20.31-3.1-2.28.8-4.57 1.94-7.13 3.1 5.52-11.98 22.25-12.41 27.44 0M140.19 134.01c-6.45-3.69-13.22-5.96-20.31-3.1-2.28.8-4.57 1.94-7.13 3.1 5.52-11.98 22.25-12.41 27.44 0"></path><path d="m160.52 252.11 2.79-.9 7.91 21.66-2.79.9z" class="silver_svg__cls-23"></path><path d="m163.01 251.84 7.56 20.72-1.84.59-7.56-20.72zm.61-1.25-.92.3-1.84.59-.99.32.36.98 7.56 20.72.33.9.92-.3 1.84-.59.99-.32-.36-.98-7.56-20.72z"></path><path d="m163.96 251 2.79-.9 7.91 21.66-2.79.9z" class="silver_svg__cls-23"></path><path d="m166.45 250.72 7.56 20.72-1.84.59-7.56-20.72zm.61-1.25-.92.3-1.84.59-.99.32.36.98 7.56 20.72.33.9.92-.3 1.84-.59.99-.32-.36-.98-7.56-20.72z"></path><path d="M146.4 250.53c.23-1.15 1.23-1.93 2.42-1.9l7.87.18c1.45.03 2.71 1.24 2.8 2.69l.06.96c.01.23 0 .45-.04.67-.23 1.15-1.23 1.93-2.42 1.9l-7.87-.18c-1.45-.03-2.71-1.24-2.8-2.69l-.06-.96c-.01-.23 0-.45.04-.67m-2.28-.65c-.08.4-.11.83-.08 1.26l.06.96c.18 2.73 2.55 5.01 5.28 5.07l7.87.18c2.29.05 4.13-1.47 4.55-3.58.08-.4.11-.83.08-1.26l-.06-.96c-.18-2.73-2.55-5.01-5.28-5.07l-7.87-.18c-2.29-.05-4.13 1.47-4.55 3.58ZM121.45 245.89c.52-1.02 1.74-1.57 2.96-1.33l8.06 1.59c1.49.29 2.49 1.64 2.23 3l-.17.91c-.04.21-.11.42-.21.61-.52 1.02-1.74 1.57-2.96 1.33l-8.06-1.59c-1.49-.29-2.49-1.64-2.23-3l.17-.91c.04-.21.11-.42.21-.61m-2.19-1.01c-.18.36-.32.75-.39 1.16l-.17.91c-.48 2.56 1.4 5.11 4.2 5.66l8.06 1.59c2.34.46 4.61-.62 5.56-2.5.18-.36.32-.75.39-1.16l.17-.91c.48-2.56-1.4-5.11-4.2-5.66l-8.06-1.59c-2.34-.46-4.61.62-5.56 2.5Z" class="silver_svg__cls-18"></path><path d="M145.4 254.37q-.435 0-.87-.03a30.4 30.4 0 0 1-6.83-1.26c-1.65-.5-3.99-1.4-5.28-3.34-.46-.69-.57-1.36-.31-1.87.17-.33.47-.58.93-.76.49-.19.93-.29 1.32-.29.43 0 .79.12 1.07.35.2.16.31.4.43.63.05.11.13.27.18.32.27.3.66.53.93.68 1.61.88 3.49 1.33 5.6 1.33 1.02 0 2.08-.11 3.17-.31a5.2 5.2 0 0 1 1.05-.13c.33 0 .62.06.89.17.91.4 1.43 1.54 1.16 2.54-.23.82-.92 1.48-1.87 1.78-.45.14-.94.21-1.56.21Z" class="silver_svg__cls-23"></path><path d="M134.35 247.31c.28 0 .54.06.75.23.2.16.34.67.55.9.29.33.69.58 1.07.78 1.82.99 3.84 1.39 5.84 1.39 1.1 0 2.2-.12 3.26-.32.31-.06.63-.12.95-.12.23 0 .47.03.69.13.72.31 1.07 1.23.88 1.95-.2.71-.83 1.21-1.54 1.43-.45.14-.92.18-1.41.18q-.42 0-.84-.03c-2.26-.15-4.52-.57-6.72-1.24-1.9-.58-3.89-1.45-5-3.14-.28-.42-.49-.95-.28-1.37.13-.26.39-.41.66-.51.32-.13.74-.26 1.14-.26m0-1c-.45 0-.96.11-1.5.33-.58.23-.97.55-1.19 1-.34.68-.22 1.52.34 2.37 1.38 2.08 3.82 3.02 5.55 3.54 2.28.69 4.61 1.13 6.95 1.28.3.02.6.04.9.04.66 0 1.21-.07 1.71-.23 1.11-.35 1.93-1.14 2.2-2.12.34-1.23-.31-2.63-1.44-3.13-.33-.15-.69-.22-1.09-.22s-.77.07-1.1.14c-1.09.21-2.12.31-3.11.31-2.02 0-3.83-.43-5.36-1.26-.24-.13-.58-.33-.8-.58l-.1-.2c-.13-.27-.28-.57-.56-.8-.37-.3-.84-.46-1.38-.46Z"></path><path d="M98.47 234.56c.88-.73 2.22-.76 3.24-.05l6.78 4.64c1.25.86 1.64 2.49.86 3.64l-.52.76c-.12.18-.27.34-.43.48-.88.73-2.22.76-3.24.05l-6.78-4.64c-1.25-.86-1.64-2.49-.86-3.64l.52-.76c.12-.18.27-.34.43-.48m-1.62-1.8c-.31.26-.59.56-.82.91l-.52.76c-1.46 2.16-.73 5.25 1.62 6.85l6.78 4.64c1.97 1.35 4.48 1.25 6.1-.1.31-.26.59-.56.82-.91l.52-.76c1.46-2.16.73-5.25-1.62-6.85l-6.78-4.64c-1.97-1.35-4.48-1.25-6.1.1Z" class="silver_svg__cls-18"></path><path d="M120.42 249.48c-.59 0-1.17-.1-1.71-.21-2.25-.46-4.47-1.19-6.6-2.18-1.57-.72-3.76-1.92-4.78-4.02-.36-.75-.38-1.42-.06-1.9.21-.3.54-.5 1.02-.62.36-.09.69-.13.99-.13.59 0 1.05.17 1.37.51.17.18.26.44.34.69.04.12.09.28.13.34.23.33.58.62.83.8 1.96 1.45 4.58 2.22 7.56 2.22.33 0 .66 0 .99-.03.21-.01.39-.02.57-.02.35 0 .87.03 1.35.32.85.52 1.21 1.72.81 2.67-.33.78-1.12 1.34-2.09 1.51-.24.04-.47.06-.71.06Z" class="silver_svg__cls-23"></path><path d="M109.28 240.91c.38 0 .75.09 1.01.35.18.19.25.71.42.96.25.36.6.67.95.92 2.3 1.69 5.13 2.31 7.86 2.31.34 0 .68 0 1.02-.03.18 0 .36-.02.54-.02.38 0 .75.05 1.09.25.67.41.9 1.37.61 2.05s-.99 1.09-1.72 1.21c-.21.04-.42.05-.63.05-.53 0-1.08-.09-1.61-.2-2.21-.46-4.4-1.18-6.49-2.14-1.8-.83-3.66-1.97-4.53-3.78-.22-.45-.36-1.01-.1-1.4.16-.24.45-.35.73-.42.26-.06.57-.12.87-.12m0-1q-.51 0-1.11.15c-.6.15-1.03.42-1.31.83-.43.63-.42 1.48.02 2.4 1.08 2.24 3.38 3.5 5.02 4.26 2.16 1 4.42 1.74 6.71 2.21.57.12 1.18.22 1.81.22.28 0 .55-.02.8-.06 1.15-.19 2.07-.87 2.47-1.81.5-1.17.05-2.65-1-3.29-.58-.36-1.2-.4-1.61-.4-.19 0-.37 0-.55.02-.36.02-.68.03-1 .03-2.01 0-4.89-.37-7.27-2.12-.22-.16-.53-.41-.72-.68-.02-.04-.04-.13-.07-.21-.09-.28-.2-.61-.45-.87-.29-.3-.82-.67-1.73-.67Z"></path><path d="M188.2 242.89c-.22-1.22.34-2.47 1.37-3.03l6.77-3.71c1.25-.68 2.76-.14 3.37 1.21l.4.9c.1.21.16.44.21.66.22 1.22-.34 2.47-1.37 3.03l-6.77 3.71c-1.25.68-2.76.14-3.37-1.21l-.4-.9c-.1-.21-.16-.44-.21-.66m-2.18.5c.08.43.2.85.39 1.26l.4.9c1.14 2.54 3.99 3.56 6.34 2.28l6.77-3.71c1.97-1.08 2.98-3.45 2.58-5.69-.08-.43-.2-.85-.39-1.26l-.4-.9c-1.14-2.54-3.99-3.56-6.34-2.28l-6.77 3.71c-1.97 1.08-2.98 3.45-2.58 5.69ZM170.47 249.15c.01-1.25.79-2.35 1.89-2.69l7.3-2.21c1.35-.41 2.72.45 3.07 1.91l.23.97c.05.23.08.46.08.7-.01 1.25-.79 2.35-1.89 2.69l-7.3 2.21c-1.35.41-2.72-.45-3.07-1.91l-.23-.97c-.05-.23-.08-.46-.08-.7m-2.23.03c0 .44.04.88.15 1.32l.23.97c.65 2.74 3.25 4.35 5.78 3.59l7.3-2.21c2.12-.64 3.55-2.76 3.56-5.05 0-.44-.04-.88-.15-1.32l-.23-.97c-.65-2.74-3.25-4.35-5.78-3.59l-7.3 2.21c-2.12.64-3.55 2.76-3.56 5.05Z" class="silver_svg__cls-18"></path><path d="M162.54 255.01c-1.93 0-3.31-.46-4.24-1.42-.48-.5-.67-1.07-.53-1.6.09-.32.29-.62.62-.9.6-.52 1.12-.77 1.58-.77.17 0 .33.03.47.1.22.1.37.31.5.49.05.07.12.17.15.19.22.16.54.24.77.28.42.09.87.13 1.32.13 1.75 0 3.75-.65 5.79-1.89.46-.28.94-.57 1.49-.57h.14c.86.09 1.5 1.01 1.41 2.01-.07.77-.54 1.55-1.25 2.08-.63.47-1.33.71-1.94.89-1.88.56-3.79.88-5.7.96-.19 0-.38.01-.58.01Z" class="silver_svg__cls-23"></path><path d="M170.46 249.56h.1c.62.06 1.02.76.96 1.45-.07.69-.51 1.32-1.05 1.73s-1.17.63-1.79.81c-1.84.55-3.71.86-5.58.94-.19 0-.37.01-.56.01-1.43 0-2.89-.25-3.88-1.26-.28-.29-.52-.69-.41-1.12.07-.27.27-.48.47-.65.34-.3.83-.65 1.26-.65.09 0 .18.02.27.05.19.08.36.49.56.62.28.2.63.3.96.37.47.1.94.14 1.42.14 2.05 0 4.16-.82 6.05-1.96.39-.24.81-.49 1.23-.49m0-1c-.69 0-1.26.34-1.71.62-1.99 1.2-3.9 1.83-5.56 1.83-.42 0-.83-.04-1.22-.12-.09-.02-.36-.07-.54-.18l-.07-.1c-.15-.21-.35-.5-.7-.65-.21-.1-.44-.14-.68-.14-.59 0-1.22.29-1.91.89-.41.36-.67.73-.78 1.15-.19.7.05 1.46.65 2.08 1.02 1.05 2.53 1.57 4.59 1.57.2 0 .4 0 .6-.01 1.95-.08 3.9-.41 5.82-.98.7-.21 1.44-.47 2.1-.97.82-.62 1.36-1.53 1.45-2.43.12-1.29-.71-2.43-1.86-2.54h-.19Z"></path><path d="M181.14 249.36c-.89 0-1.63-.72-1.84-1.78-.24-1.24.28-2.9 2.01-3.61.46-.19 6.49-3.05 6.79-3.22.21-.14.47-.21.76-.21.45 0 .98.19 1.56.56.41.26.67.56.79.91.19.55.03 1.21-.46 1.85-1.29 1.69-6.5 4.44-8.9 5.37-.23.09-.47.14-.7.14Z" class="silver_svg__cls-23"></path><path d="M188.86 241.03c.44 0 .93.25 1.29.48.24.16.48.36.58.65.16.47-.09.99-.38 1.38-1.19 1.57-6.24 4.26-8.69 5.21-.18.07-.35.1-.52.1-1.66 0-2.18-3.39.36-4.42.38-.15 6.66-3.12 6.86-3.26.15-.1.32-.14.5-.14m0-1c-.38 0-.72.1-1.02.29-.47.25-6.26 2.99-6.72 3.19-1.99.81-2.59 2.73-2.31 4.16.26 1.31 1.19 2.18 2.33 2.18.29 0 .59-.06.88-.17 2.36-.91 7.72-3.69 9.12-5.53.59-.78.78-1.6.53-2.32-.16-.46-.48-.84-.99-1.17-.66-.42-1.28-.64-1.82-.64Z"></path><path d="M167.1 271.4c-.26 0-.5-.01-.74-.04l-.38-.04-.59-3.45.68.1c.28.04.6.06.94.06 1.03 0 2.06-.21 2.83-.57.84-.39 1.39-.91 1.59-1.49.15-.44.1-.92-.14-1.39-.4-.78-1-1.27-2.71-1.27-.29 0-.6.01-.94.04-.36.03-.71.05-1.05.05-3.34 0-4.82-1.51-5.47-2.77-.66-1.28-.78-2.7-.34-4 .5-1.47 1.65-2.66 3.33-3.44a8.8 8.8 0 0 1 3.62-.82c.25 0 .49.01.7.04l.38.04.52 3.34-.67-.09a5.664 5.664 0 0 0-3.14.48c-.65.3-1.09.73-1.26 1.24-.14.41-.1.85.11 1.27.39.77 1.01 1.03 2.45 1.03.35 0 .73-.02 1.15-.04q.48-.03.93-.03c2.86 0 4.62.94 5.7 3.05.69 1.34.82 2.73.38 4.01-.52 1.53-1.82 2.82-3.74 3.72-1.34.63-2.81.97-4.14.97" class="silver_svg__cls-23"></path><path d="M167.72 252.88c.23 0 .45.01.65.03l.36 2.3a6.225 6.225 0 0 0-3.43.53c-1.56.73-1.96 2.07-1.38 3.19.52 1.01 1.38 1.3 2.9 1.3.36 0 .75-.02 1.18-.04q.465-.03.9-.03c2.54 0 4.22.77 5.26 2.78 1.36 2.64.33 5.43-3.13 7.05-1.33.62-2.72.92-3.93.92q-.36 0-.69-.03l-.41-2.39c.29.05.64.07 1.01.07.95 0 2.09-.17 3.04-.62 1.93-.9 2.32-2.32 1.68-3.56-.57-1.11-1.47-1.54-3.16-1.54-.3 0-.62.01-.97.04s-.69.04-1.01.04c-2.54 0-4.2-.9-5.02-2.5-1.25-2.42-.37-5.3 2.76-6.76 1.2-.56 2.42-.78 3.41-.78m0-1c-1.27 0-2.63.31-3.83.87-1.77.83-3.05 2.16-3.59 3.73-.49 1.43-.36 2.98.37 4.39.71 1.39 2.32 3.04 5.91 3.04.35 0 .72-.02 1.1-.05.32-.02.62-.03.89-.03 1.63 0 1.99.45 2.27.99.18.35.22.69.12 1-.15.45-.61.86-1.33 1.2-.71.33-1.66.52-2.62.52-.31 0-.61-.02-.86-.06l-1.37-.21.23 1.37.41 2.39.13.75.75.08c.26.03.52.04.79.04 1.4 0 2.95-.36 4.35-1.02 2.05-.96 3.44-2.35 4-4.01.48-1.42.34-2.94-.41-4.4-1.16-2.27-3.12-3.32-6.15-3.32q-.465 0-.96.03c-.45.03-.81.04-1.12.04-1.5 0-1.78-.31-2.01-.75-.1-.2-.21-.52-.09-.88.13-.38.48-.71 1-.95.85-.4 1.67-.48 2.2-.48.23 0 .45.01.67.04l1.33.18-.21-1.33-.36-2.3-.12-.76-.76-.08c-.24-.03-.5-.04-.76-.04Z"></path><path d="M98.28 238.77c-.61-.05-1.15-.31-1.63-.53-1.74-.83-3.53-1.69-5.02-3.03-1.7-1.54-2.65-3.5-2.59-5.39.04-1.27.52-2.44.94-3.32.34-.71.9-1.57 1.69-1.57.19 0 .49.06.78.33.51.47.76 1.52.98 2.45.08.32.14.61.21.81.14.43.29.87.53 1.22.17.26.4.5.63.73 1.13 1.17 2.18 2.19 3.47 2.76.15.07.31.13.47.19.52.21 1.06.42 1.52.83.79.73 1.05 1.97.62 2.95-.4.92-1.39 1.56-2.4 1.56h-.19Z" class="silver_svg__cls-23"></path><path d="M91.66 225.44c.14 0 .29.06.44.2.56.52.81 2.32 1.06 3.05.16.46.31.93.58 1.34.19.3.44.55.69.81 1.08 1.12 2.21 2.25 3.63 2.87.63.28 1.33.47 1.85.94.64.59.85 1.59.5 2.38-.33.75-1.12 1.26-1.94 1.26h-.15c-.51-.04-.99-.26-1.45-.49-1.73-.82-3.48-1.66-4.9-2.95-1.42-1.28-2.49-3.09-2.43-5 .03-1.09.42-2.14.89-3.12.22-.47.7-1.28 1.23-1.28m0-1c-1.05 0-1.74 1.01-2.14 1.85-.44.93-.94 2.16-.98 3.52-.06 2.03.94 4.14 2.76 5.77 1.54 1.39 3.37 2.26 5.14 3.11.49.23 1.1.52 1.8.58h.23c1.22 0 2.37-.75 2.85-1.86.52-1.19.21-2.64-.74-3.52-.52-.48-1.13-.72-1.67-.93l-.45-.18c-1.22-.54-2.22-1.52-3.32-2.65-.21-.21-.42-.44-.57-.66-.2-.3-.33-.69-.47-1.11-.06-.17-.12-.46-.2-.76-.29-1.25-.55-2.17-1.12-2.7-.41-.38-.84-.46-1.12-.46"></path><path d="M198.51 239.23c-.06 0-.13 0-.19-.01-.8-.12-1.34-.51-1.5-1.09-.1-.34-.06-.74.13-1.21.25-.62.96-1.27 1.72-1.95l.3-.27.15-.15c3.49-3.39 4.55-3.85 5.04-3.9h.15c.55 0 1.03.31 1.27.8s.17 1.07-.17 1.49c-3.33 4.17-5.66 6.29-6.91 6.29Z" class="silver_svg__cls-23"></path><path d="M204.32 231.14c.75 0 1.2.88.71 1.49-1.66 2.07-5.06 6.1-6.52 6.1h-.11c-.47-.07-.97-.28-1.1-.73-.08-.28 0-.6.11-.88.23-.59 1.12-1.33 1.9-2.04.19-.17 3.83-3.81 4.91-3.92h.1m0-1c-.07 0-.14 0-.21.01-.43.04-1.31.14-5.34 4.05l-.14.13-.3.27c-.81.72-1.57 1.4-1.86 2.14-.23.58-.27 1.08-.14 1.53.22.76.92 1.29 1.91 1.44.08.01.17.02.26.02.58 0 2.14 0 7.3-6.47.46-.58.55-1.36.23-2.02-.32-.67-.98-1.09-1.72-1.09Z"></path><path d="M175.01 272.31c-3.27.29-6.52.17-9.76-.39 3.27-.3 6.52-.16 9.76.39" class="silver_svg__cls-1"></path><path d="M170.04 278.74c-.37-4.34-.31-8.69.17-13.02.37 4.34.31 8.69-.17 13.02M200.82 251.95c-2.37.28-4.74.3-7.11.04 2.37-.29 4.74-.3 7.11-.04" class="silver_svg__cls-1"></path><path d="M197.02 255.8q-.165-3.795.48-7.53.165 3.795-.48 7.53M141.57 250.22c-2.37.28-4.74.3-7.11.04 2.37-.29 4.74-.3 7.11-.04" class="silver_svg__cls-1"></path><path d="M137.76 254.07q-.165-3.795.48-7.53.165 3.795-.48 7.53" class="silver_svg__cls-1"></path><path d="M115.46 282.02s-13.55-7.67-6.75-19.69c6.8-12.03 23.08-6.36 23.08-6.36s6.03 2.8 8.44 5.33 12.11-1.87 16.7 3.55 3.17 15.92 3.17 15.92-.92 4.07-2.27 5.73c-1.34 1.66-.51 10.85-3.87 13.58s-7.72-.65-7.72-.65-1.96-1.34-.03-10.95l-2.06 4.27s-3 2.84-2.87 5.61-6.96 1.62-6.96 1.62-6.17-2.13.19-17.1l-4.31 10.58s-1.85 7.87-8.75 6.48-3.97-9.53-3.97-9.53-3.2-2.69-2.02-8.38Z" class="silver_svg__cls-2"></path><path d="M158.07 273.68c-1.54-.38-3.16-.2-4.71-.18-1.55.08-3.08.46-4.21 1.61 1.33-2.95 6.52-2.9 8.92-1.43M142.52 275.03c-2.86-3.01-2.6-4.56-7.37-4.27 4.2-1.68 5.83.76 7.37 4.27M120.78 265.55c-3.51 2.82-4.61 7.21-4.8 11.5-.53 3.41 1.83 5.71 4.41 7.52.87.61 1.85 1.12 2.98 1.03-1.07.43-2.33.09-3.34-.39-2.07-1.08-4.13-2.39-5.1-4.67-1.44-5.16.65-12.74 5.86-14.99ZM132.84 288.18c.07-1.9 1.14-3.89.91-5.69-.6-1.81-1.36-3.89-1.58-5.85-.19-1.37-.26-2.75-.1-4.13.46 1.31.85 2.6 1.24 3.88.58 2.04 1.31 3.75 1.83 5.85.18 2.27-1.3 4.06-2.3 5.95ZM144.14 292.73c.8-3.11 1.36-6.23 2.6-9.2.6-1.23.83-2.02.49-3.5-.46-2.69-.85-5.37-.97-8.11.66 1.71 1.18 3.45 1.65 5.2.4 1.86 1.34 3.76.74 5.69-.34.94-.73 1.63-1.06 2.53-1 2.44-1.93 5.2-3.45 7.39"></path><path d="M132.85 287.13c-1.3 2.03-4.7 2.38-6.38.64 2.22.68 4.33.47 6.38-.64M158.98 284.08c-1.58 2.97-6.43 4.17-8.85 1.54 3.2 1.03 6.06.17 8.85-1.54M147.51 285.05c-.59 1.32-2.52 1.26-3.73 1.63-1.28.18-3.04.73-4.06-.4 1.31.56 2.59-.17 3.92-.34.67-.12 1.35-.23 2.03-.3.67-.09 1.35-.06 1.83-.59ZM145.44 262.07c-3.44.26-6.74.29-10.01 1.41 2.7-2.27 6.75-2.41 10.01-1.41"></path><path d="M260.7 158.04c-1.84 1.05-4.91 1.36-8.17.62-4.3-.97-7.51-3.42-7.81-5.76-.04-.29-.03-.57.02-.85 0-.03 0-.06.02-.09.07-.3.2-.59.37-.85.03.28.11.56.22.84.04.11.09.21.14.31l.02.03c.2.37.46.75.8 1.11 1.35 1.5 3.74 2.81 6.62 3.46 1.82.41 3.58.5 5.09.31.59-.07 1.14-.18 1.63-.33.44-.13.85-.29 1.22-.48.1-.05.19-.1.29-.16.09-.05.18-.1.26-.17.04-.02.07-.05.11-.07.03-.02.05-.04.08-.06l.18-.15c.05-.04.1-.08.14-.13.18-.16.33-.34.46-.53l.07.02c.03.28.02.55-.05.82-.02.1-.05.19-.08.28-.16.45-.44.86-.82 1.21-.24.22-.51.42-.82.59Z" style="stroke: rgb(0, 0, 0); stroke-miterlimit: 10; stroke-width: 0.27px; fill: rgb(96, 96, 96);"></path><path d="m262.47 155.14-.07-.02.06-.09v.11Z" style="stroke: rgb(0, 0, 0); stroke-miterlimit: 10; fill: rgb(125, 86, 41); stroke-width: 0.27px;"></path><path d="M256.46 157.41c-1.16 0-2.35-.14-3.55-.41-2.83-.64-5.26-1.91-6.69-3.5-.33-.36-.61-.74-.82-1.14-.07-.14-.12-.25-.17-.36-.17-.42-.14-.88.08-1.28.08-.14.18-.28.3-.38q.345-.3.69-.51c.47-.29 1.05-.53 1.7-.72.33-.1.69-.17 1.06-.24.65-.11 1.35-.16 2.07-.16 1.15 0 2.35.14 3.55.41 3 .68 5.6 2.1 6.96 3.81.19.23.36.48.5.75.08.15.15.29.21.44.13.31.14.66.04.98-.06.23-.19.46-.37.63-.08.08-.12.11-.16.14l-.17.14-.09.06-.19-.04.08.11c-.08.06-.17.11-.25.16-.13.08-.22.13-.31.17-.38.19-.79.36-1.24.49-.5.15-1.06.26-1.65.33q-.765.09-1.59.09Z" class="silver_svg__cls-23"></path><path d="M251.13 148.85c1.11 0 2.3.13 3.52.41 3.07.7 5.59 2.14 6.88 3.77.19.24.36.48.49.73.08.14.15.29.21.43.12.29.12.6.04.89-.06.21-.17.41-.34.57 0 .02-.03.03-.04.04-.03.03-.06.06-.1.08l-.18.15c-.03.02-.06.04-.08.06-.04.02-.07.05-.11.07-.08.06-.17.11-.26.17-.09.05-.19.11-.29.16-.36.19-.77.35-1.21.48-.5.15-1.04.26-1.63.33-.5.06-1.03.09-1.58.09-1.11 0-2.3-.13-3.52-.41-2.88-.65-5.27-1.96-6.62-3.46-.33-.36-.6-.74-.8-1.11l-.02-.03c-.05-.1-.1-.21-.14-.31a1.38 1.38 0 0 1 .34-1.51c.2-.17.42-.34.67-.49.47-.29 1.04-.53 1.67-.7.33-.1.68-.17 1.05-.23.64-.11 1.33-.16 2.05-.16m0-.27c-.73 0-1.44.06-2.1.17q-.585.09-1.08.24c-.66.19-1.25.43-1.73.73-.24.14-.48.32-.71.52q-.195.18-.33.42c-.24.43-.27.94-.08 1.39.04.11.1.23.15.33.23.44.51.83.85 1.21 1.45 1.61 3.91 2.9 6.76 3.54 1.21.27 2.41.41 3.58.41.55 0 1.09-.03 1.61-.09.6-.07 1.17-.19 1.68-.34.45-.13.88-.3 1.26-.5.09-.05.19-.1.28-.15.12-.07.22-.13.31-.19l.05-.03.05-.04.09-.06.06-.04.14-.12s.05-.04.08-.07.03-.04.03-.04l.05-.05c.19-.19.32-.42.39-.68.11-.34.09-.73-.05-1.06-.07-.15-.14-.3-.22-.46-.14-.27-.32-.53-.52-.77-1.37-1.73-4-3.17-7.03-3.86a16.5 16.5 0 0 0-3.58-.41Z"></path><g class="silver_svg__cls-27"><path d="m261.54 155.97-2.57-.83-.2-.06-9.58-3.08-.07-.02-3.69-1.19c.07-.13.16-.25.27-.35.2-.17.42-.34.67-.49l3.89 1.25.41.13 8.53 2.75 3.07.99c-.06.21-.17.41-.34.57-.04.04-.08.09-.14.13l-.18.15c-.03.02-.06.04-.08.06Z" class="silver_svg__cls-1"></path></g><g class="silver_svg__cls-27"><path d="M259.66 156.85c-.5.15-1.04.26-1.63.33l-11.72-3.77c-.33-.36-.6-.74-.8-1.11l4.11 1.32z" class="silver_svg__cls-1"></path></g><g class="silver_svg__cls-27"><path d="m262.03 153.75-4.73-1.52h-.02l-3.12-1.02-6.12-1.97c.33-.1.68-.17 1.05-.23l12.46 4.01c.19.24.36.48.49.73Z" class="silver_svg__cls-1"></path></g><ellipse cx="254.2" cy="153.27" rx="2" ry="5.26" transform="rotate(-77.26 254.208 153.271)"></ellipse><ellipse cx="254.15" cy="153.51" class="silver_svg__cls-30" rx="2" ry="5.26" transform="rotate(-77.26 254.154 153.505)"></ellipse><path d="M256.86 156.41a28.8 28.8 0 0 1-3.05-5.85c1.24 1.83 2.25 3.79 3.05 5.85" class="silver_svg__cls-1"></path><path d="M252.07 154.9c2.04-1.16 4.18-2.09 6.43-2.79a32.7 32.7 0 0 1-6.43 2.79" class="silver_svg__cls-1"></path><path d="M275.16 139.65c-2.43-1.39-4.82-4.67-6.15-8.87-1.77-5.54-1.13-10.82 1.33-12.72.3-.23.63-.42.98-.54.04-.02.07-.03.11-.04.39-.12.81-.17 1.22-.15-.3.23-.57.5-.81.82-.09.12-.18.24-.26.37l-.03.04c-.29.48-.54 1.03-.73 1.65-.8 2.54-.7 6.13.49 9.84.75 2.34 1.82 4.4 3.05 6 .47.62.96 1.17 1.47 1.64.44.42.9.77 1.35 1.06.12.08.25.15.37.22s.24.13.36.19c.05.02.1.05.16.07.04.02.08.03.13.05.1.04.19.07.28.1.08.03.16.06.23.07.31.09.61.15.91.17l.02.1c-.29.22-.61.39-.96.49-.13.04-.25.07-.37.09-.62.12-1.27.08-1.93-.12-.41-.12-.81-.3-1.22-.54Z" style="stroke: rgb(0, 0, 0); stroke-miterlimit: 10; stroke-width: 0.36px; fill: rgb(96, 96, 96);"></path><path d="m279.64 139.72-.02-.1s.1 0 .14.01c-.04.03-.08.06-.12.08Z" style="stroke: rgb(0, 0, 0); stroke-miterlimit: 10; fill: rgb(125, 86, 41); stroke-width: 0.36px;"></path><path d="M279.15 139.69c-.17 0-.33-.02-.49-.07l-.11-.03c-.05-.02-.1-.03-.15-.06l-.28-.1-.13-.06-.08-.24-.07.16c-.13-.06-.25-.13-.38-.2s-.26-.15-.38-.22q-.705-.45-1.38-1.08c-.51-.47-1.01-1.02-1.48-1.66-1.28-1.68-2.35-3.77-3.08-6.05-1.16-3.64-1.34-7.26-.49-9.95.19-.62.44-1.19.75-1.69.11-.18.2-.3.3-.43.36-.47.91-.75 1.5-.76h.01c.25 0 .44.03.62.08.38.12.72.27 1.04.45.65.34 1.3.83 1.95 1.45.32.3.65.66.98 1.05 1.46 1.75 2.67 4.02 3.48 6.56 1.23 3.86 1.35 7.77.31 10.46-.14.37-.31.73-.51 1.07-.11.19-.23.37-.36.53-.27.35-.66.6-1.09.7-.15.04-.31.06-.47.06Z" class="silver_svg__cls-23"></path><path d="M273.26 117.44c.17 0 .35.02.51.08.33.11.67.25 1 .43.65.34 1.29.83 1.91 1.43.33.31.65.66.96 1.04 1.39 1.66 2.61 3.9 3.44 6.5 1.26 3.96 1.3 7.79.31 10.34-.14.38-.31.73-.5 1.04-.11.19-.23.36-.35.52-.25.33-.6.54-.99.64a1.611 1.611 0 0 1-.87 0s-.05 0-.07-.01c-.06-.02-.11-.03-.16-.06-.09-.03-.19-.07-.28-.1-.05-.02-.09-.04-.13-.05-.05-.02-.1-.05-.16-.07a3 3 0 0 1-.36-.19c-.12-.07-.25-.14-.37-.22-.45-.29-.91-.65-1.35-1.06-.5-.46-.99-1.01-1.47-1.64-1.22-1.6-2.3-3.66-3.05-6-1.19-3.71-1.29-7.31-.49-9.84.19-.62.44-1.17.73-1.65l.03-.04c.08-.13.17-.25.26-.37.33-.43.84-.68 1.37-.69h.06m0-.36h-.07c-.64.02-1.24.32-1.64.83-.1.13-.19.26-.28.4l-.03.04c-.32.52-.58 1.1-.77 1.74-.86 2.72-.68 6.38.49 10.06.73 2.3 1.81 4.41 3.1 6.11.49.64.99 1.21 1.51 1.68.45.43.93.8 1.4 1.1q.18.12.36.21c.15.09.28.16.42.22l.07.03.08.04.13.06h.01l.04.02.26.09s.08.03.14.05h.01l.04.02c.03 0 .06.02.1.02a2.1 2.1 0 0 0 1.03-.01c.46-.11.88-.38 1.18-.76.14-.2.26-.37.37-.55.21-.34.39-.71.53-1.1 1.05-2.72.93-6.67-.31-10.57-.82-2.56-2.03-4.85-3.51-6.62-.33-.4-.66-.76-.99-1.07-.65-.63-1.33-1.13-1.99-1.48a6.4 6.4 0 0 0-1.06-.46c-.2-.06-.41-.09-.62-.09Z"></path><g class="silver_svg__cls-27"><path d="m278.06 139.22-.77-3.47-.06-.27-2.89-12.94-.02-.1-1.11-4.99c.19 0 .39.02.57.07.33.11.67.25 1.01.44l1.17 5.26.12.55 2.57 11.53.93 4.15c-.28.08-.58.08-.87 0-.08-.01-.15-.04-.23-.07-.09-.03-.19-.07-.28-.1-.05-.02-.09-.04-.13-.05Z" class="silver_svg__cls-1"></path></g><g class="silver_svg__cls-27"><path d="M275.82 137.67c-.5-.46-.99-1.01-1.47-1.64l-3.53-15.84c.19-.62.44-1.17.73-1.65l1.24 5.56z" class="silver_svg__cls-1"></path></g><g class="silver_svg__cls-27"><path d="m280.91 138.29-1.43-6.39v-.04l-.94-4.22-1.84-8.27c.33.31.65.66.96 1.04l3.76 16.84c-.14.38-.31.73-.5 1.04Z" class="silver_svg__cls-1"></path></g><ellipse cx="276.24" cy="129.07" rx="2.64" ry="6.93" transform="rotate(-17.69 276.228 129.075)"></ellipse><ellipse cx="275.93" cy="129.17" class="silver_svg__cls-30" rx="2.64" ry="6.93" transform="rotate(-17.69 275.92 129.158)"></ellipse><path d="M274.44 134.2c1.26-2.63 2.8-5.09 4.62-7.37-1.26 2.63-2.8 5.09-4.62 7.37" class="silver_svg__cls-1"></path><path d="M272.95 127.74c2.68 1.55 5.17 3.36 7.46 5.44a42.8 42.8 0 0 1-7.46-5.44" class="silver_svg__cls-1"></path><path d="M311.71 163.38c.25 2.97-1.18 7.05-4.06 10.76-3.79 4.9-8.81 7.54-11.97 6.53-.39-.12-.74-.3-1.07-.53a.4.4 0 0 1-.1-.07c-.35-.27-.64-.6-.87-.98.38.12.78.2 1.21.21.16 0 .32.01.48 0h.05c.59-.03 1.23-.15 1.89-.36 2.71-.83 5.8-3.1 8.34-6.38 1.6-2.07 2.76-4.26 3.42-6.3.26-.79.45-1.55.55-2.27.1-.64.14-1.26.11-1.83 0-.15-.02-.3-.03-.46a6 6 0 0 0-.05-.43l-.03-.18c0-.05-.02-.09-.03-.14-.03-.11-.05-.21-.08-.31-.02-.09-.04-.17-.08-.25-.1-.32-.24-.63-.4-.9l.07-.08c.37.12.71.3 1.01.54.11.09.21.18.31.27.48.47.83 1.07 1.06 1.76.14.43.23.89.27 1.4Z" class="silver_svg__cls-10"></path><path d="m309.06 159.41-.07.08s-.05-.09-.07-.13q.075.015.15.06Z" class="silver_svg__cls-6"></path><path d="M294.84 179.49c-.63-.03-1.21-.35-1.58-.86-.14-.19-.24-.39-.31-.6-.12-.4-.2-.8-.23-1.18-.09-.78-.06-1.65.1-2.59.07-.46.18-.97.33-1.49.65-2.35 1.92-4.77 3.65-7.02 2.64-3.42 6-5.88 8.99-6.6.41-.11.83-.17 1.25-.2.14-.01.29-.01.43-.01h.25c.47.03.92.22 1.28.54.26.22.46.51.58.85l.04.11c.02.06.03.11.04.18l.06.22.04.17.04.24c.03.15.04.3.06.45.01.16.03.31.03.47.02.59-.02 1.22-.12 1.87-.1.73-.29 1.5-.55 2.31-.7 2.14-1.89 4.34-3.45 6.36-2.49 3.22-5.56 5.57-8.43 6.45-.66.21-1.31.33-1.93.36h-.55Z" class="silver_svg__cls-23"></path><path d="M307.46 159.13h.25c.44.02.84.2 1.16.48.24.2.42.47.53.77.02.02.02.05.03.08.02.06.03.11.04.17.03.1.05.2.08.31 0 .05.02.1.03.14l.03.18c.03.14.04.29.05.43.01.15.03.3.03.46.02.57-.02 1.19-.11 1.83-.1.72-.29 1.49-.55 2.27-.66 2.04-1.82 4.23-3.42 6.3-2.53 3.28-5.63 5.55-8.34 6.38-.66.21-1.29.32-1.89.35h-.53c-.58-.03-1.1-.32-1.44-.78-.12-.16-.22-.35-.28-.55-.11-.36-.19-.74-.23-1.14-.09-.78-.05-1.63.09-2.54q.105-.72.33-1.47c.62-2.22 1.84-4.65 3.62-6.95 2.71-3.5 6.04-5.85 8.88-6.53.42-.11.83-.17 1.21-.19.14-.01.28-.01.42-.01m0-.38c-.15 0-.29 0-.44.02-.42.02-.86.09-1.28.2-3.02.72-6.42 3.22-9.09 6.67-1.75 2.26-3.02 4.71-3.68 7.08-.15.52-.26 1.04-.34 1.52-.16.95-.19 1.84-.1 2.64.04.39.12.8.24 1.21.07.23.19.46.34.66.4.55 1.03.9 1.72.93h.57c.65-.03 1.31-.16 1.99-.37 2.91-.89 6.01-3.26 8.52-6.51 1.57-2.03 2.78-4.25 3.48-6.42.27-.81.46-1.6.56-2.34.1-.65.14-1.29.12-1.9 0-.15-.02-.3-.03-.45-.02-.19-.03-.34-.06-.5l-.03-.17-.03-.15c-.03-.13-.06-.24-.09-.34 0-.03-.02-.09-.04-.15v-.02l-.02-.04c0-.03-.02-.06-.04-.1-.13-.35-.34-.66-.63-.9-.38-.34-.87-.55-1.38-.57h-.27Z"></path><g class="silver_svg__cls-27"><path d="m309.58 161.09-2.58 2.78-.2.21-9.61 10.36-.07.08-3.71 4c-.12-.16-.22-.35-.28-.55-.11-.36-.19-.74-.23-1.14l3.9-4.21.41-.44 8.56-9.23 3.08-3.32c.24.2.42.47.53.77.03.08.06.16.08.25.03.1.05.2.08.31 0 .05.02.1.03.14Z" class="silver_svg__cls-1"></path></g><g class="silver_svg__cls-27"><path d="M309.58 163.99c-.1.72-.29 1.49-.55 2.27l-11.76 12.68c-.66.21-1.29.32-1.89.35l4.12-4.45 10.07-10.86Z" class="silver_svg__cls-1"></path></g><g class="silver_svg__cls-27"><path d="m307.05 159.15-4.74 5.12-.03.02-3.13 3.38-6.14 6.62q.105-.72.33-1.47l12.5-13.48c.42-.11.83-.17 1.22-.19Z" class="silver_svg__cls-1"></path></g><ellipse cx="301.79" cy="168.82" rx="7.38" ry="2.81" transform="rotate(-52.28 301.757 168.824)"></ellipse><ellipse cx="302.05" cy="169.03" class="silver_svg__cls-30" rx="7.38" ry="2.81" transform="rotate(-52.28 302.033 169.035)"></ellipse><path d="M307.37 167.3c-3.07.49-6.17.63-9.26.41 3.06-.49 6.16-.63 9.26-.41" class="silver_svg__cls-1"></path><path d="M302.6 172.51c-.27-3.28-.18-6.58.26-9.84.27 3.28.18 6.57-.26 9.84" class="silver_svg__cls-1"></path><path d="M303.56 237.4c-1.7 1.22-4.69 1.83-7.97 1.43-4.33-.52-7.73-2.6-8.26-4.88q-.105-.42-.06-.84v-.09c.04-.31.13-.6.28-.88.06.27.16.54.31.81.05.1.11.2.17.29l.02.03c.23.35.53.69.9 1.01 1.48 1.34 3.97 2.39 6.86 2.73 1.83.22 3.57.13 5.04-.21.57-.13 1.1-.29 1.57-.49.42-.17.81-.37 1.15-.59.09-.06.18-.12.26-.18s.17-.12.24-.19a1 1 0 0 1 .1-.08c.02-.02.05-.04.08-.07l.16-.16c.05-.04.09-.09.12-.14.16-.18.29-.37.4-.57l.07.02c.06.27.07.54.04.81-.01.1-.03.19-.05.28-.11.46-.34.89-.68 1.28q-.315.36-.75.66Z" style="stroke: rgb(0, 0, 0); stroke-miterlimit: 10; fill: rgb(96, 96, 96); stroke-width: 0.27px;"></path><path d="m305 234.37-.07-.02s.04-.06.05-.09c.01.04.02.07.02.11Z" style="stroke: rgb(0, 0, 0); stroke-miterlimit: 10; fill: rgb(125, 86, 41); stroke-width: 0.27px;"></path><path d="M297.78 237.29c-.65 0-1.32-.04-1.99-.12-2.84-.34-5.37-1.35-6.93-2.77-.36-.32-.67-.67-.92-1.04-.09-.13-.14-.23-.2-.34-.21-.4-.23-.86-.05-1.26.06-.15.15-.29.25-.4q.3-.33.63-.57c.43-.33.97-.63 1.6-.88.32-.13.66-.24 1.02-.34 1.08-.3 2.28-.45 3.56-.45.65 0 1.33.04 1.99.12 3.02.36 5.72 1.5 7.23 3.05.21.21.4.44.57.68.09.14.18.27.25.41.16.29.2.63.14.96a1.3 1.3 0 0 1-.3.65c-.08.1-.11.13-.14.15l-.09.09-.12.11-.12.1c-.08.07-.16.13-.24.19-.12.09-.2.14-.28.2q-.525.345-1.17.6c-.48.2-1.01.37-1.59.5-.96.22-2 .33-3.1.33Z" class="silver_svg__cls-23"></path><path d="M294.75 229.26q.96 0 1.98.12c3.09.37 5.71 1.54 7.15 3.01.21.21.4.44.55.67.09.13.17.27.25.4.14.27.18.58.12.87-.03.21-.13.42-.27.59 0 .02-.02.03-.03.05l-.09.09c-.05.05-.1.11-.16.16-.03.02-.05.05-.08.07a1 1 0 0 1-.1.08c-.08.07-.16.13-.24.19-.09.06-.17.13-.26.18-.34.22-.73.42-1.15.59-.47.2-1 .36-1.57.49-.93.21-1.97.33-3.07.33-.64 0-1.3-.04-1.97-.12-2.9-.35-5.38-1.4-6.86-2.73-.36-.32-.66-.66-.9-1.01l-.02-.03c-.06-.09-.12-.19-.17-.29a1.36 1.36 0 0 1 .18-1.52c.18-.19.38-.38.61-.55.44-.33.97-.62 1.57-.86.31-.13.65-.24 1.01-.33 1.05-.29 2.24-.44 3.53-.44m0-.27c-1.29 0-2.5.15-3.6.45-.37.1-.72.22-1.04.34-.63.25-1.18.55-1.63.89-.22.16-.44.36-.64.58a1.593 1.593 0 0 0-.22 1.82c.06.11.12.21.18.31.27.41.59.77.96 1.1 1.58 1.43 4.14 2.46 7.01 2.8.67.08 1.34.12 2 .12 1.1 0 2.16-.11 3.13-.33.59-.13 1.13-.3 1.62-.5.43-.18.83-.38 1.19-.61.09-.06.18-.13.28-.19.09-.07.18-.13.26-.21l.09-.08.08-.07.18-.18s.05-.04.08-.08.05-.06.07-.09c.17-.2.28-.45.32-.7.07-.35.02-.72-.15-1.04-.08-.14-.17-.29-.26-.43-.17-.25-.37-.49-.59-.7-1.53-1.56-4.26-2.72-7.31-3.08-.67-.08-1.35-.12-2.01-.12"></path><g class="silver_svg__cls-27"><path d="m304.17 235.29-2.61-.55-.2-.04-9.73-2.07-.07-.02-3.75-.8c.06-.13.13-.26.23-.37.18-.19.38-.38.61-.55l3.95.84.42.09 8.66 1.84 3.12.66c-.03.21-.13.42-.27.59-.03.05-.07.09-.12.14s-.1.11-.16.16c-.03.02-.05.05-.08.07Z" class="silver_svg__cls-1"></path></g><g class="silver_svg__cls-27"><path d="M302.42 236.34c-.47.2-1 .36-1.57.49l-11.9-2.53c-.36-.32-.66-.66-.9-1.01l4.18.89z" class="silver_svg__cls-1"></path></g><g class="silver_svg__cls-27"><path d="m304.43 233.06-4.8-1.02h-.03l-3.17-.68-6.21-1.32c.31-.13.65-.24 1.01-.33l12.65 2.69c.21.21.4.44.55.67Z" class="silver_svg__cls-1"></path></g><ellipse cx="296.69" cy="233.37" rx="1.98" ry="5.2" transform="rotate(-83.12 296.691 233.37)"></ellipse><ellipse cx="296.66" cy="233.61" class="silver_svg__cls-30" rx="1.98" ry="5.2" transform="rotate(-83.12 296.663 233.607)"></ellipse><path d="M299.62 236.19c-1.4-1.68-2.6-3.49-3.59-5.44 1.4 1.68 2.6 3.5 3.59 5.44" class="silver_svg__cls-1"></path><path d="M294.75 235.19c1.89-1.35 3.9-2.48 6.04-3.39-1.89 1.35-3.9 2.48-6.04 3.39" class="silver_svg__cls-1"></path></g></g></svg>