<svg width="30" height="30" viewBox="0 0 30 30" fill="none" xmlns="http://www.w3.org/2000/svg">
<path d="M11.2499 23.7492C11.2499 24.7992 11.4124 25.8242 11.7124 26.7742C6.91238 25.1117 3.28738 20.6992 2.91238 15.5367C2.53738 10.0492 5.69988 4.92423 10.8124 2.77423C12.1374 2.22423 12.8124 2.62423 13.0999 2.91173C13.3749 3.18673 13.7624 3.84923 13.2124 5.11173C12.6499 6.41173 12.3749 7.78673 12.3749 9.21173C12.3874 11.7617 13.3874 14.1242 15.0124 15.9367C12.7249 17.7617 11.2499 20.5867 11.2499 23.7492Z" fill="#A1A1A1"/>
<path opacity="0.4" d="M26.5125 22.15C24.0375 25.5125 20.1125 27.4875 15.925 27.4875C15.725 27.4875 15.525 27.475 15.325 27.4625C14.075 27.4125 12.8625 27.175 11.7125 26.775C11.4125 25.825 11.25 24.8 11.25 23.75C11.25 20.5875 12.725 17.7625 15.0125 15.9375C16.85 18 19.4875 19.3375 22.4 19.4625C23.1875 19.5 23.975 19.4375 24.75 19.3C26.15 19.05 26.7125 19.575 26.9125 19.9125C27.125 20.25 27.35 20.9875 26.5125 22.15Z" fill="#A1A1A1"/>
</svg>


