<svg width="36" height="36" viewBox="0 0 36 36" fill="none" xmlns="http://www.w3.org/2000/svg">
<path opacity="0.4" d="M18 33C26.2843 33 33 26.2843 33 18C33 9.71573 26.2843 3 18 3C9.71573 3 3 9.71573 3 18C3 26.2843 9.71573 33 18 33Z" fill="#818181"/>
<path d="M25.1399 17.8942C24.5099 17.7892 23.9548 18.2392 23.8648 18.8542C23.6848 20.1592 23.0998 21.3292 22.1998 22.2292C20.1298 24.2992 16.9199 24.5092 14.5949 22.9042H15.7199C16.3349 22.9042 16.8449 22.3942 16.8449 21.7792C16.8449 21.1642 16.3349 20.6542 15.7199 20.6542H11.7148C11.0998 20.6542 10.5898 21.1642 10.5898 21.7792V25.7842C10.5898 26.3992 11.0998 26.9092 11.7148 26.9092C12.3298 26.9092 12.8398 26.3992 12.8398 25.7842V24.3742C14.3398 25.5892 16.1548 26.2341 17.9848 26.2341C20.0848 26.2341 22.1848 25.4392 23.7898 23.8342C25.0348 22.5892 25.8299 20.9841 26.0849 19.1841C26.1899 18.5391 25.7549 17.9692 25.1399 17.8942Z" fill="#818181"/>
<path d="M11.0101 18.1205C11.5651 18.1205 12.0451 17.7155 12.1201 17.1605C12.3001 15.8555 12.8851 14.6855 13.7851 13.7855C15.8551 11.7155 19.0652 11.5054 21.3902 13.1104H20.2652C19.6502 13.1104 19.1402 13.6204 19.1402 14.2354C19.1402 14.8504 19.6502 15.3604 20.2652 15.3604H24.2701C24.8851 15.3604 25.3951 14.8504 25.3951 14.2354V10.2305C25.3951 9.61547 24.8851 9.10547 24.2701 9.10547C23.6551 9.10547 23.1451 9.61547 23.1451 10.2305V11.6405C19.9201 9.03047 15.1952 9.19545 12.2102 12.1805C10.9652 13.4255 10.1701 15.0304 9.91512 16.8304C9.82512 17.4454 10.2601 18.0155 10.8751 18.1055C10.9051 18.1205 10.9651 18.1205 11.0101 18.1205Z" fill="#818181"/>
</svg>
