<svg width="36" height="36" viewBox="0 0 36 36" fill="none" xmlns="http://www.w3.org/2000/svg">
<path opacity="0.4" d="M16.1371 29.574C23.4165 29.574 29.3176 23.6729 29.3176 16.3934C29.3176 9.11403 23.4165 3.21289 16.1371 3.21289C8.85768 3.21289 2.95654 9.11403 2.95654 16.3934C2.95654 23.6729 8.85768 29.574 16.1371 29.574Z" fill="black"/>
<path d="M32.1997 28.005C31.7169 27.1126 30.6929 26.6152 29.3178 26.6152C28.2792 26.6152 27.3868 27.0395 26.8602 27.7709C26.3335 28.5023 26.2165 29.4825 26.5383 30.4626C27.1674 32.3644 28.2645 32.7886 28.8643 32.8617C28.9521 32.8764 29.0399 32.8764 29.1423 32.8764C29.7859 32.8764 30.7807 32.5984 31.7462 31.1502C32.5215 30.0237 32.6678 28.8973 32.1997 28.005Z" fill="black"/>
</svg>
