<svg width="30" height="30" viewBox="0 0 30 30" fill="none" xmlns="http://www.w3.org/2000/svg">
<path opacity="0.4" d="M15 23.75C19.8325 23.75 23.75 19.8325 23.75 15C23.75 10.1675 19.8325 6.25 15 6.25C10.1675 6.25 6.25 10.1675 6.25 15C6.25 19.8325 10.1675 23.75 15 23.75Z" fill="black"/>
<path d="M15 28.7C14.3125 28.7 13.75 28.1875 13.75 27.5V27.4C13.75 26.7125 14.3125 26.15 15 26.15C15.6875 26.15 16.25 26.7125 16.25 27.4C16.25 28.0875 15.6875 28.7 15 28.7ZM23.925 25.175C23.6 25.175 23.2875 25.05 23.0375 24.8125L22.875 24.65C22.3875 24.1625 22.3875 23.375 22.875 22.8875C23.3625 22.4 24.15 22.4 24.6375 22.8875L24.8 23.05C25.2875 23.5375 25.2875 24.325 24.8 24.8125C24.5625 25.05 24.25 25.175 23.925 25.175ZM6.075 25.175C5.75 25.175 5.4375 25.05 5.1875 24.8125C4.7 24.325 4.7 23.5375 5.1875 23.05L5.35 22.8875C5.8375 22.4 6.625 22.4 7.1125 22.8875C7.6 23.375 7.6 24.1625 7.1125 24.65L6.95 24.8125C6.7125 25.05 6.3875 25.175 6.075 25.175ZM27.5 16.25H27.4C26.7125 16.25 26.15 15.6875 26.15 15C26.15 14.3125 26.7125 13.75 27.4 13.75C28.0875 13.75 28.7 14.3125 28.7 15C28.7 15.6875 28.1875 16.25 27.5 16.25ZM2.6 16.25H2.5C1.8125 16.25 1.25 15.6875 1.25 15C1.25 14.3125 1.8125 13.75 2.5 13.75C3.1875 13.75 3.8 14.3125 3.8 15C3.8 15.6875 3.2875 16.25 2.6 16.25ZM23.7625 7.4875C23.4375 7.4875 23.125 7.3625 22.875 7.125C22.3875 6.6375 22.3875 5.85 22.875 5.3625L23.0375 5.2C23.525 4.7125 24.3125 4.7125 24.8 5.2C25.2875 5.6875 25.2875 6.475 24.8 6.9625L24.6375 7.125C24.4 7.3625 24.0875 7.4875 23.7625 7.4875ZM6.2375 7.4875C5.9125 7.4875 5.6 7.3625 5.35 7.125L5.1875 6.95C4.7 6.4625 4.7 5.675 5.1875 5.1875C5.675 4.7 6.4625 4.7 6.95 5.1875L7.1125 5.35C7.6 5.8375 7.6 6.625 7.1125 7.1125C6.875 7.3625 6.55 7.4875 6.2375 7.4875ZM15 3.8C14.3125 3.8 13.75 3.2875 13.75 2.6V2.5C13.75 1.8125 14.3125 1.25 15 1.25C15.6875 1.25 16.25 1.8125 16.25 2.5C16.25 3.1875 15.6875 3.8 15 3.8Z" fill="black"/>
</svg>
