<svg width="22" height="52" viewBox="0 0 22 52" fill="none" xmlns="http://www.w3.org/2000/svg">
<path d="M11.3054 13.4443C14.5461 13.4443 17.2174 10.8168 17.2174 7.53232V0C13.9768 0 11.3054 2.62755 11.3054 5.912V13.4443Z" fill="#2FAC66"/>
<path d="M11.3033 13.4442C5.52269 13.4442 0.749298 18.13 0.61792 23.8668C0.61792 23.9544 0.61792 24.042 0.61792 24.1296V28.3337C2.71996 28.3337 4.47166 26.6257 4.47166 24.5237V24.3923C4.69063 20.7138 7.7999 17.8234 11.5661 17.9548C15.1133 18.0862 18.0036 21.0203 18.0912 24.5675C18.2225 28.4212 15.1133 31.5743 11.2595 31.5743H3.94616C2.10687 31.5743 0.61792 33.0633 0.61792 34.9025V41.1649C0.61792 47.0331 5.4351 51.8503 11.3033 51.8503C17.1715 51.8503 21.9887 47.0331 21.9887 41.1649V24.1296C21.9887 18.2614 17.1715 13.4442 11.3033 13.4442Z" fill="#F9B233"/>
<path opacity="0.31" d="M18.8789 40.1576C18.3534 40.2014 18.0031 40.6831 18.0031 41.1648V41.2524C18.0031 44.3617 15.6821 47.0768 12.6604 47.4272C12.6166 47.4272 12.4852 47.4272 12.3538 47.4272C11.8283 47.4272 11.3904 47.9089 11.3904 48.4344C11.3904 49.0037 11.8721 49.4416 12.4414 49.4416C12.7042 49.4416 12.9231 49.3978 12.9669 49.3978C16.952 48.8723 19.9737 45.3251 19.9737 41.2524V41.1648C19.9299 40.5955 19.4482 40.1138 18.8789 40.1576Z" fill="white"/>
</svg>
